<?xml version="1.0" encoding="UTF-8"?>
<svg width="822px" height="327px" viewBox="0 0 822 327" version="1.1" xmlns="http://www.w3.org/2000/svg" xmlns:xlink="http://www.w3.org/1999/xlink">
    <title>133383</title>
    <g id="Page-1" stroke="none" stroke-width="1" fill="none" fill-rule="evenodd">
        <g id="133383" transform="translate(0.812500, 0.000000)" fill-rule="nonzero">
            <g id="Group" transform="translate(0.000000, 106.855469)" fill="#BBBBBB">
                <path d="M672.132813,65.175781 C664.085938,65.175781 657.039063,66.425781 650.988281,68.875 C644.890625,71.421875 639.746094,74.820312 635.597656,78.96875 C631.496094,83.066406 628.398438,87.867187 626.25,93.363281 C624.152344,98.863281 623.101563,104.558594 623.101563,110.507812 C623.101563,116.453125 624.152344,122.152344 626.25,127.601562 C628.398438,133.046875 631.496094,137.847656 635.597656,141.992187 C639.746094,146.140625 644.890625,149.441406 650.988281,151.890625 C657.039063,154.390625 664.035156,155.636719 671.929688,155.636719 C679.976563,155.636719 687.074219,154.390625 693.125,151.890625 C699.121094,149.441406 704.269531,146.140625 708.515625,141.992187 C712.617188,137.847656 715.714844,133.046875 717.863281,127.601562 C719.960938,122.152344 721.011719,116.453125 721.011719,110.507812 C721.011719,104.558594 719.960938,98.863281 717.863281,93.363281 C715.714844,87.867187 712.617188,83.066406 708.515625,78.96875 C704.269531,74.820312 699.121094,71.421875 693.125,68.875 C687.074219,66.425781 680.078125,65.175781 672.132813,65.175781 Z M652.738281,71.621094 C658.289063,69.273437 664.785156,68.125 672.132813,68.125 C679.328125,68.125 685.726563,69.273437 691.375,71.621094 C696.921875,73.972656 701.621094,77.070312 705.46875,80.96875 C709.265625,84.816406 712.117188,89.316406 714.015625,94.363281 C715.964844,99.410156 716.964844,104.660156 716.964844,110.054687 C716.964844,115.554687 715.964844,120.800781 714.015625,125.851562 C712.117188,130.898437 709.265625,135.398437 705.46875,139.246094 C701.621094,143.144531 696.921875,146.242187 691.375,148.589844 C685.726563,150.839844 679.328125,151.988281 672.132813,151.988281 C664.785156,151.988281 658.289063,150.839844 652.738281,148.589844 C647.191406,146.242187 642.445313,143.144531 638.542969,139.246094 C634.796875,135.398437 631.949219,130.898437 630,125.851562 C628.097656,120.800781 627.148438,115.554687 627.148438,110.054687 C627.148438,104.660156 628.097656,99.410156 630,94.363281 C631.949219,89.316406 634.796875,84.816406 638.542969,80.96875 C642.445313,77.070312 647.191406,73.972656 652.738281,71.621094" id="Shape"></path>
                <polyline id="Path" points="605.609375 33.1875 601.460938 33.1875 601.460938 36.035156 601.558594 36.035156 601.558594 49.628906 605.609375 49.628906 605.609375 33.1875"></polyline>
                <polyline id="Path" points="591.3125 33.1875 587.164063 33.1875 587.164063 69.875 587.265625 69.875 587.265625 153.839844 591.3125 153.839844 591.3125 33.1875"></polyline>
                <polyline id="Path" points="601.460938 67.125 601.460938 69.972656 601.558594 69.972656 601.558594 153.988281 605.609375 153.988281 605.609375 67.125 601.460938 67.125"></polyline>
                <path d="M557.527344,110.957031 C557.828125,104.957031 557.078125,99.210937 555.226563,93.714844 C553.527344,88.214844 550.730469,83.316406 546.882813,79.070312 C542.933594,74.773437 537.835938,71.324219 531.6875,68.773437 C525.539063,66.125 518.242188,64.824219 509.746094,64.824219 C503.699219,64.824219 497.75,65.824219 491.953125,67.875 C486.105469,69.921875 481.007813,72.921875 476.609375,76.769531 C472.210938,80.570312 468.664063,85.316406 466.011719,91.066406 C463.316406,96.613281 461.964844,103.007812 461.964844,110.15625 C461.964844,116.605469 462.867188,122.550781 464.714844,128.050781 C466.5625,133.597656 469.363281,138.445312 473.210938,142.59375 C477.007813,146.742187 481.90625,149.992187 487.90625,152.238281 C493.902344,154.4375 501.101563,155.488281 509.546875,155.386719 C521.992188,155.386719 532.386719,152.589844 540.832031,146.941406 C549.28125,141.394531 554.277344,133.597656 555.878906,123.550781 L551.828125,123.550781 C549.878906,133.097656 545.183594,140.246094 537.636719,145.09375 C530.089844,149.742187 520.59375,152.140625 509.097656,152.238281 C501.347656,152.140625 494.800781,151.089844 489.453125,149.042969 C484.007813,146.84375 479.609375,143.894531 476.257813,140.144531 C472.8125,136.398437 470.363281,132.046875 468.8125,127.050781 C467.113281,122.101562 466.214844,116.703125 466.164063,110.957031 L557.527344,110.957031 Z M479.757813,78.621094 C483.707031,75.171875 488.304688,72.570312 493.503906,70.824219 C498.652344,69.023437 504.199219,68.125 510.195313,68.125 C517.292969,68.125 523.492188,69.171875 528.839844,71.273437 C534.285156,73.273437 538.835938,76.070312 542.484375,79.621094 C546.03125,83.265625 548.78125,87.515625 550.628906,92.265625 C552.53125,97.011719 553.476563,102.058594 553.476563,107.308594 L466.164063,107.308594 C466.511719,101.308594 467.914063,95.914062 470.3125,91.066406 C472.8125,86.167969 475.960938,82.015625 479.757813,78.621094" id="Shape"></path>
                <path d="M817.671875,82.316406 C815.773438,78.46875 813.125,75.21875 809.777344,72.671875 C806.328125,70.023437 802.230469,68.074219 797.480469,66.722656 C792.832031,65.472656 787.636719,64.875 781.988281,64.875 C776.640625,64.875 771.839844,65.425781 767.492188,66.523437 C763.195313,67.671875 759.398438,69.324219 756.097656,71.472656 C752.800781,73.523437 750.050781,75.921875 747.851563,78.71875 C745.652344,81.46875 744.050781,84.566406 743.101563,87.914062 L742.351563,87.914062 L742.351563,66.875 L738.15625,66.875 L738.15625,152.140625 L742.351563,152.140625 L742.351563,103.859375 C742.351563,99.113281 743.203125,94.511719 744.902344,90.113281 C746.5,85.816406 749,82.066406 752.347656,78.820312 C755.648438,75.519531 759.796875,72.921875 764.746094,71.023437 C769.640625,69.074219 775.339844,68.074219 781.886719,68.074219 C786.585938,68.074219 790.984375,68.625 795.082031,69.722656 C799.332031,70.773437 802.976563,72.421875 806.128906,74.671875 C809.375,76.820312 811.875,79.667969 813.625,83.21875 C815.523438,86.765625 816.472656,91.015625 816.472656,95.960937 L816.472656,152.140625 L820.523438,152.140625 L820.523438,95.511719 C820.523438,90.566406 819.574219,86.167969 817.671875,82.316406" id="Path"></path>
                <path d="M26.339844,71.621094 C20.542969,74.023437 15.695313,77.21875 11.84375,81.269531 C8.046875,85.367187 5.097656,90.164062 3.050781,95.664062 C1,101.109375 0,106.808594 0,112.804687 C0,114.855469 0.101563,116.855469 0.351563,118.855469 C0.800781,122.953125 1.75,126.800781 3.199219,130.449219 C5.296875,135.898437 8.347656,140.59375 12.296875,144.542969 C16.34375,148.492187 21.191406,151.539062 26.890625,153.789062 C32.585938,155.9375 38.984375,157.039062 46.132813,157.039062 C51.679688,157.039062 56.828125,156.4375 61.625,155.289062 C66.222656,154.039062 70.371094,152.238281 74.121094,149.890625 C81.71875,145.242187 86.914063,139.046875 89.714844,131.347656 L90.464844,131.347656 L90.613281,155.1875 L94.664063,155.1875 L94.664063,-1.42108547e-14 L90.613281,-1.42108547e-14 L90.613281,93.714844 L89.714844,93.714844 C87.164063,86.015625 82.117188,79.820312 74.671875,75.121094 C67.273438,70.273437 57.777344,67.921875 46.132813,67.972656 C38.734375,67.921875 32.136719,69.125 26.339844,71.621094 Z M27.238281,74.671875 C32.585938,72.222656 38.933594,70.972656 46.332031,70.972656 C59.675781,70.972656 70.371094,74.523437 78.417969,81.617187 C86.566406,88.765625 90.613281,99.011719 90.613281,112.355469 C90.613281,117.902344 89.566406,123.203125 87.515625,128.199219 C85.566406,133.148437 82.71875,137.496094 79.070313,141.246094 C75.269531,144.894531 70.621094,147.890625 65.125,150.140625 C62.625,151.140625 59.976563,151.890625 57.226563,152.441406 C53.878906,153.089844 50.230469,153.4375 46.332031,153.4375 C39.285156,153.4375 33.136719,152.339844 27.789063,150.140625 C22.441406,147.890625 18.042969,144.894531 14.59375,141.144531 C11.144531,137.347656 8.546875,132.949219 6.699219,127.949219 C5.949219,125.75 5.398438,123.550781 4.949219,121.351562 C4.347656,118.453125 4.050781,115.453125 4.050781,112.355469 C4.050781,107.457031 4.898438,102.507812 6.597656,97.5625 C8.199219,92.613281 10.695313,88.214844 14.042969,84.367187 C17.492188,80.320312 21.890625,77.121094 27.238281,74.671875" id="Shape"></path>
                <path d="M182.277344,75.121094 C174.878906,70.273437 165.382813,67.921875 153.738281,67.972656 C146.339844,67.921875 139.746094,69.125 133.945313,71.621094 C128.199219,74.023437 123.351563,77.21875 119.453125,81.269531 C115.652344,85.367187 112.707031,90.164062 110.65625,95.664062 C108.609375,101.109375 107.609375,106.808594 107.609375,112.804687 C107.609375,119.152344 108.65625,125.050781 110.804688,130.449219 C112.957031,135.898437 115.953125,140.59375 119.902344,144.542969 C123.949219,148.492187 128.796875,151.539062 134.496094,153.789062 C140.246094,155.9375 146.640625,157.039062 153.738281,157.039062 C164.882813,157.039062 174.179688,154.640625 181.726563,149.890625 C189.324219,145.242187 194.523438,139.046875 197.320313,131.347656 L198.070313,131.347656 L198.222656,155.1875 L202.269531,155.1875 L202.269531,69.222656 L198.222656,69.222656 L198.222656,93.714844 L197.320313,93.714844 C194.773438,86.015625 189.722656,79.820312 182.277344,75.121094 Z M153.9375,70.972656 C167.285156,70.972656 177.980469,74.523437 186.027344,81.617187 C194.171875,88.765625 198.222656,99.011719 198.222656,112.355469 C198.222656,117.902344 197.171875,123.203125 195.121094,128.199219 C193.171875,133.148437 190.324219,137.496094 186.675781,141.246094 C182.878906,144.894531 178.226563,147.890625 172.730469,150.140625 C167.332031,152.339844 161.085938,153.4375 153.9375,153.4375 C146.941406,153.4375 140.746094,152.339844 135.398438,150.140625 C130.046875,147.890625 125.652344,144.894531 122.203125,141.144531 C118.753906,137.347656 116.152344,132.949219 114.304688,127.949219 C112.554688,123 111.65625,117.804687 111.65625,112.355469 C111.65625,107.457031 112.503906,102.507812 114.203125,97.5625 C115.804688,92.613281 118.304688,88.214844 121.652344,84.367187 C125.101563,80.320312 129.5,77.121094 134.847656,74.671875 C140.195313,72.222656 146.542969,70.972656 153.9375,70.972656" id="Shape"></path>
                <path d="M224.558594,69.773437 L220.363281,69.773437 L220.363281,155.039062 L224.558594,155.039062 L224.558594,106.757812 C224.558594,102.011719 225.410156,97.410156 227.109375,93.011719 C228.707031,88.714844 231.207031,84.964844 234.554688,81.71875 C237.855469,78.417969 242.003906,75.820312 246.953125,73.921875 C251.847656,71.972656 257.546875,70.972656 264.09375,70.972656 C268.792969,70.972656 273.191406,71.523437 277.289063,72.621094 C281.539063,73.671875 285.1875,75.320312 288.335938,77.570312 C291.582031,79.71875 294.082031,82.566406 295.832031,86.117187 C297.730469,89.664062 298.679688,93.914062 298.679688,98.863281 L298.679688,155.039062 L302.730469,155.039062 L302.730469,98.410156 C302.730469,93.464844 301.78125,89.066406 299.878906,85.214844 C297.980469,81.367187 295.332031,78.121094 291.984375,75.570312 C288.535156,72.921875 284.4375,70.972656 279.6875,69.625 C275.039063,68.375 269.84375,67.773437 264.195313,67.773437 C258.847656,67.773437 254.046875,68.324219 249.699219,69.421875 C245.402344,70.574219 241.601563,72.222656 238.304688,74.371094 C235.007813,76.421875 232.257813,78.820312 230.058594,81.617187 C227.859375,84.367187 226.257813,87.464844 225.308594,90.816406 L224.558594,90.816406 L224.558594,69.773437" id="Path"></path>
            </g>
            <path d="M434.625,5.546875 C434.777344,5.246094 434.828125,4.996094 434.828125,4.746094 C434.828125,3.398438 433.027344,2.296875 429.476563,1.449219 C425.878906,0.5 421.53125,0 416.382813,0 C411.285156,0 406.9375,0.5 403.339844,1.449219 C399.691406,2.296875 397.890625,3.398438 397.941406,4.746094 C397.890625,4.996094 397.941406,5.246094 398.191406,5.546875 C398.242188,5.597656 398.292969,5.648438 398.292969,5.746094 C398.640625,6.195313 399.289063,6.597656 400.242188,6.945313 C401.089844,7.296875 402.089844,7.695313 403.339844,8.046875 C406.9375,8.894531 411.285156,9.34375 416.382813,9.34375 C421.53125,9.34375 425.878906,8.894531 429.476563,8.046875 C432.226563,7.296875 433.976563,6.496094 434.625,5.546875" id="Path" fill="#8E8E8E"></path>
            <path d="M432.425781,9.695313 C430.078125,10.195313 427.53125,10.59375 424.78125,10.894531 C416.433594,18.59375 408.1875,23.140625 400.140625,24.539063 C383.996094,28.039063 374.199219,38.234375 370.800781,55.175781 C374.851563,39.035156 384.996094,29.238281 401.140625,25.738281 C409.6875,24.1875 420.882813,18.691406 434.625,9.34375 C433.875,9.496094 433.175781,9.644531 432.425781,9.695313" id="Path" fill="#8E8E8E"></path>
            <path d="M418.933594,11.195313 C418.132813,11.195313 417.332031,11.246094 416.535156,11.34375 C414.835938,11.246094 413.234375,11.195313 411.683594,11.144531 C403.9375,19.191406 395.742188,23.640625 387.09375,24.539063 C371.5,27.988281 360.257813,38.882813 353.359375,57.226563 L353.507813,57.226563 C361.054688,39.582031 372.601563,29.085938 388.195313,25.738281 C396.140625,24.339844 406.386719,19.492188 418.933594,11.195313" id="Path" fill="#8E8E8E"></path>
            <path d="M402.691406,9.796875 C401.339844,9.894531 399.992188,9.796875 398.589844,9.496094 C397.941406,9.34375 397.292969,9.195313 396.640625,9.046875 L396.089844,9.246094 C388.394531,13.945313 381.347656,16.890625 375,18.042969 C374.949219,18.042969 374.851563,18.042969 374.800781,18.042969 C365.804688,18.839844 359.554688,21.742188 356.007813,26.738281 C354.957031,28.089844 354.160156,29.6875 353.609375,31.4375 C353.359375,32.035156 353.207031,32.636719 353.160156,33.1875 C353.308594,32.535156 353.507813,31.9375 353.808594,31.4375 C354.609375,29.488281 355.757813,27.738281 357.207031,26.289063 C360.355469,22.839844 365.203125,20.589844 371.703125,19.441406 C372.953125,19.242188 374.300781,19.089844 375.75,18.941406 C376.347656,18.941406 377,18.890625 377.648438,18.792969 C384.097656,18.042969 392.445313,15.042969 402.691406,9.796875" id="Path" fill="#8E8E8E"></path>
            <path d="M394.640625,7.597656 C393.992188,7.246094 393.441406,6.894531 392.992188,6.597656 C384.597656,9.246094 375.902344,9.796875 366.902344,8.144531 C373.25,10.496094 379.648438,11.34375 386.09375,10.796875 C388.59375,10.546875 391.144531,10.144531 393.691406,9.496094 C393.542969,9.546875 393.390625,9.644531 393.34375,9.695313 L394.140625,9.496094 L393.992188,9.34375 C394.441406,9.195313 394.941406,9.09375 395.542969,8.945313 L395.742188,8.945313 C396.140625,8.796875 396.492188,8.644531 396.839844,8.496094 L396.992188,8.496094 C396.089844,8.195313 395.292969,7.894531 394.640625,7.597656" id="Path" fill="#8E8E8E"></path>
            <path d="M408.289063,10.894531 C406.4375,10.746094 404.738281,10.546875 403.140625,10.246094 C394.042969,17.691406 385.046875,22.390625 376.199219,24.289063 C360.105469,27.839844 351.507813,35.636719 350.410156,47.679688 C352.160156,36.433594 361.15625,29.035156 377.347656,25.488281 C385.398438,24.039063 395.691406,19.191406 408.289063,10.894531" id="Path" fill="#8E8E8E"></path>
            <path d="M322.523438,282.136719 C323.871094,271.089844 333.015625,262.195313 349.859375,255.445313 C364.054688,249.75 376.550781,246.800781 387.296875,246.550781 L387.296875,242.152344 C368.503906,243.5 352.058594,247.5 337.964844,254.148438 C320.523438,262.492188 311.824219,272.539063 311.874779,284.335938 C311.824219,296.082031 320.523438,306.078125 337.964844,314.421875 C355.410156,322.667969 376.5,326.820313 401.238281,326.820313 C425.929688,326.820313 446.972656,322.667969 464.414063,314.421875 C480.707031,306.578125 489.355469,297.28125 490.40625,286.535156 L490.304688,286.535156 C489.003906,294.929688 480.609375,303.328125 465.164063,311.773438 C449.621094,320.222656 429.726563,324.367188 405.4375,324.21875 C381.046875,323.96875 360.804688,319.671875 344.710938,311.273438 C328.519531,302.828125 321.121094,293.132813 322.523438,282.136719" id="Path" fill="#8E8E8E"></path>
            <path d="M398.292969,147.738281 C395.542969,161.683594 395.542969,176.277344 398.292969,191.421875 C402.839844,227.207031 407.386719,262.992188 411.984375,298.828125 C408.535156,262.992188 405.136719,227.207031 401.789063,191.421875 C399.089844,176.277344 399.089844,161.683594 401.789063,147.738281 C405.4375,127.949219 403.238281,104.65625 395.191406,77.867188 L391.695313,77.867188 C399.742188,104.65625 401.941406,127.949219 398.292969,147.738281" id="Path" fill="#8E8E8E"></path>
            <path d="M372.953125,74.367188 C370.003906,80.21875 366.703125,85.714844 362.957031,90.8125 C374.5,99.609375 382.847656,121.601563 387.945313,156.835938 C383.996094,122.050781 376.648438,99.910156 365.902344,90.414063 C370.152344,85.464844 373.851563,80.117188 377,74.367188 C380.546875,67.722656 383.398438,60.523438 385.445313,52.828125 L381.496094,52.828125 C379.148438,60.476563 376.300781,67.621094 372.953125,74.367188" id="Path" fill="#8E8E8E"></path>
        </g>
    </g>
</svg>
