<?xml version="1.0" encoding="UTF-8"?>
<svg width="289px" height="39px" viewBox="0 0 289 39" version="1.1" xmlns="http://www.w3.org/2000/svg" xmlns:xlink="http://www.w3.org/1999/xlink">
    <title>178276</title>
    <g id="Page-1" stroke="none" stroke-width="1" fill="none" fill-rule="evenodd">
        <g id="178276" transform="translate(0.000000, -0.003014)" fill="#BBBBBB" fill-rule="nonzero">
            <path d="M258.648438,19.2256702 L258.648438,1.1358272 L263.769531,1.1358272 L263.800781,3.4991082 L263.828125,5.8623892 L264.378906,5.1241082 C266.195313,2.6827022 269.019531,0.963952196 272.296875,0.315514196 C273.640625,0.0498891965 276.738281,0.0772329965 278.402344,0.370202196 C283.460938,1.2686392 286.515625,3.9444202 287.578125,8.4131702 C288.160156,10.8702022 288.148438,10.5459832 288.191406,24.4327022 L288.230469,37.3233272 L282.988281,37.3233272 L282.988281,25.3194202 C282.988281,12.4834832 282.96875,11.9795772 282.449219,10.1045772 C281.652344,7.2334832 279.75,5.4405142 276.839844,4.8116082 C275.824219,4.5928582 273.445313,4.5616082 272.421875,4.7530142 C268.300781,5.5225452 265.390625,8.4287952 264.261719,12.9053582 C263.804688,14.7139522 263.773438,15.5342642 263.773438,26.7061392 L263.773438,37.3233272 L258.652344,37.3233272 L258.648438,19.2256702 Z M237.921875,29.9014522 C239.027344,29.6787952 240.515625,28.9444202 241.222656,28.2647332 C241.921875,27.5967642 242.558594,26.6162952 242.84375,25.7686392 C242.964844,25.4092642 243.066406,25.0733272 243.066406,25.0264522 C243.066406,24.9795772 239.839844,24.9405142 235.898438,24.9405142 L228.734375,24.9405142 L228.796875,25.3389522 C228.902344,25.9834832 229.578125,27.2295772 230.179688,27.8897332 C231.105469,28.9053582 232.3125,29.5694202 233.832031,29.9053582 C234.726563,30.1045772 236.914063,30.1006702 237.921875,29.8975452 L237.921875,29.9014522 Z M233.351563,37.1670772 C231.222656,36.8623892 229.355469,36.2881702 227.535156,35.3819202 C218.398438,30.8350452 214.597656,19.8702022 218.957031,10.6358272 C222.664063,2.7881702 231.425781,-1.4579238 239.96875,0.456139196 C247.113281,2.0537952 252.597656,7.6592642 254.167969,14.9678582 C254.464844,16.3350452 254.574219,19.4405142 254.382813,20.9561392 C254.121094,23.0342642 253.503906,25.0811392 252.550781,26.9912952 C251.527344,29.0420772 250.496094,30.4248892 248.683594,32.1670772 C245.945313,34.7959832 242.871094,36.3467642 238.957031,37.0694202 C237.742188,37.2959832 234.609375,37.3506702 233.351563,37.1670772 Z M207.945313,19.2256702 L207.945313,1.1358272 L213.070313,1.1358272 L213.070313,37.3233272 L207.945313,37.3233272 L207.945313,19.2256702 Z M100.136719,19.2256702 L100.136719,1.1358272 L104.933594,1.1358272 L104.964844,3.6084832 L104.992188,6.0811392 L105.589844,5.2881702 C107.523438,2.7295772 109.734375,1.1944202 112.410156,0.549889196 C115.804688,-0.262610804 119.234375,0.0420766965 121.976563,1.4014522 C123.886719,2.3506702 125.175781,3.5772332 126.078125,5.3155142 C126.316406,5.7764522 126.527344,6.1514522 126.546875,6.1514522 C126.5625,6.1514522 126.800781,5.8155142 127.070313,5.4092642 C128.824219,2.7725452 131.609375,1.0303582 135.207031,0.323327196 C136.355469,0.0967641965 139.027344,0.0694204965 140.324219,0.272545196 C143.246094,0.725670196 145.28125,1.7139522 146.878906,3.4483272 C148.617188,5.3350452 149.539063,7.8897332 149.773438,11.4678582 C149.828125,12.3311392 149.875,18.5030142 149.875,25.1787952 L149.878906,37.3233272 L144.648438,37.3233272 L144.648438,24.6983272 C144.648438,16.6397332 144.609375,11.7452022 144.535156,11.1670772 C144.183594,8.2803582 143.046875,6.3233272 141.21875,5.4600452 C140.21875,4.9912952 139.464844,4.7998892 138.042969,4.6514522 C133.648438,4.1983272 130.34375,5.9873892 128.800781,9.6553582 C128.355469,10.7100452 128.15625,11.4014522 127.867188,12.8936392 C127.644531,14.0811392 127.636719,14.3272332 127.597656,25.7139522 L127.558594,37.3233272 L122.34375,37.3233272 L122.28125,10.5811392 L122.039063,9.6748892 C121.539063,7.7803582 120.546875,6.2881702 119.3125,5.5655142 C117.953125,4.7725452 116.21875,4.4522332 114.324219,4.6436392 C111.808594,4.9014522 110.195313,5.6162952 108.617188,7.1670772 C107.019531,8.7373892 106.054688,10.8506702 105.511719,13.9522332 C105.359375,14.8311392 105.332031,16.3780142 105.292969,26.1397332 L105.25,37.3233272 L100.136719,37.3233272 L100.136719,19.2256702 Z M90.527344,19.2256702 L90.527344,1.1358272 L95.757813,1.1358272 L95.757813,37.3233272 L90.527344,37.3233272 L90.527344,19.2256702 Z M57.117188,19.2256702 L57.117188,1.1358272 L62.34375,1.1358272 L62.371094,3.4952022 L62.402344,5.8584832 L62.773438,5.2842642 C63.292969,4.4717642 64.710938,3.0889522 65.703125,2.4209832 C67.273438,1.3623892 69.238281,0.581139196 71.148438,0.256920196 C72.117188,0.0889516965 75.027344,0.100670496 76.332031,0.276452196 C81.46875,0.960045196 84.828125,3.6748892 85.992188,8.0772332 C86.636719,10.5186392 86.609375,9.9405142 86.65625,24.2178582 L86.695313,37.3194202 L81.574219,37.3194202 L81.535156,25.0186392 C81.488281,11.7608272 81.492188,11.8623892 80.917969,9.9405142 C80.164063,7.4327022 78.503906,5.7256702 76.089844,4.9873892 C74.410156,4.4756702 71.78125,4.4717642 69.953125,4.9756702 C66.5625,5.9170772 64.019531,8.5694202 62.941406,12.2959832 C62.351563,14.3311392 62.351563,14.2569202 62.351563,26.2452022 L62.351563,37.3194202 L57.121094,37.3194202 L57.121094,19.2256702 L57.117188,19.2256702 Z M0.0390625,24.2725452 C0.0820313,9.9991082 0.0507813,10.7022332 0.71875,8.4991082 C2.25,3.4131702 6.5,0.538170196 13.179688,0.0694204965 C15.203125,-0.0712046035 18.023438,0.0928579965 19.621094,0.444420196 L19.863281,0.499108196 L19.863281,5.3662952 L18.875,5.2178582 C18.296875,5.1280142 16.964844,5.0616082 15.648438,5.0537952 C13.695313,5.0420772 13.261719,5.0733272 12.292969,5.2842642 C8.957031,6.0030142 6.859375,7.5967642 5.863281,10.1670772 C5.363281,11.4561392 5.230469,12.5420772 5.265625,15.1787952 L5.292969,17.5225452 L17.410156,17.5772332 L17.410156,22.3819202 L5.347656,22.3819202 L5.347656,37.3272332 L0,37.3272332 L0.0390625,24.2764522 L0.0390625,24.2725452 Z M197.378906,37.5303582 C194.183594,37.1514522 192.414063,35.8116082 191.773438,33.2959832 C191.425781,31.9170772 191.40625,31.0967642 191.402344,18.4014522 L191.402344,5.6162952 L185.210938,5.6162952 L185.210938,1.1319202 L203.785156,1.1319202 L203.785156,5.6162952 L196.523438,5.6162952 L196.527344,17.5459832 C196.53125,28.8780142 196.566406,30.4131702 196.84375,31.4444202 C197.105469,32.4248892 197.835938,32.9795772 199.101563,33.1631702 C199.746094,33.2530142 202.800781,33.1319202 203.488281,32.9912952 L203.78125,32.9287952 L203.78125,37.4991082 L201.84375,37.5733272 C199.546875,37.6553582 198.324219,37.6436392 197.378906,37.5303582 Z M168.140625,33.6280142 C172.171875,32.9405142 175.148438,30.8272332 176.671875,27.5811392 C177.453125,25.9092642 177.550781,25.3037952 177.605469,21.7647332 C177.632813,20.0459832 177.625,18.6397332 177.601563,18.6397332 C177.570313,18.6397332 177.34375,18.7334832 177.085938,18.8467642 C176.089844,19.2842642 173.476563,19.7881702 169.304688,20.3467642 C162.464844,21.2647332 159.21875,22.8702022 158.460938,25.7217642 C158.265625,26.4561392 158.269531,28.0537952 158.476563,28.8272332 C159.105469,31.2412952 161.292969,33.1319202 164.085938,33.6827022 C164.890625,33.8389522 167.066406,33.8077022 168.140625,33.6280142 Z M163.4375,38.1670772 C161.351563,37.9639522 159.277344,37.3506702 157.839844,36.5069202 C156.867188,35.9405142 155.472656,34.6514522 154.867188,33.7569202 C154.3125,32.9405142 153.683594,31.5772332 153.460938,30.7022332 C153.144531,29.4600452 153.023438,27.6319202 153.164063,26.2373892 C153.398438,23.9248892 154.039063,22.3389522 155.296875,20.9834832 C156.871094,19.2803582 158.609375,18.2920772 161.464844,17.4756702 C163.175781,16.9834832 164.519531,16.7530142 168.71875,16.2334832 C174.296875,15.5459832 174.90625,15.4561392 175.570313,15.2061392 C176.351563,14.9131702 176.996094,14.2686392 177.320313,13.4522332 C177.539063,12.8975452 177.566406,12.6397332 177.570313,11.3272332 C177.570313,10.0655142 177.535156,9.7100452 177.324219,9.0342642 C176.582031,6.6319202 174.839844,5.2920772 171.859375,4.8272332 C167.546875,4.1553582 163.863281,4.9366082 161.789063,6.9600452 C160.621094,8.1006702 159.808594,10.2491082 159.804688,12.2100452 L159.804688,12.7686392 L154.574219,12.7686392 L154.574219,12.5264522 C154.585938,11.5108272 155.015625,9.2998892 155.453125,8.0186392 C156.460938,5.0616082 158.960938,2.5030142 161.96875,1.3428582 C164.542969,0.350670196 167.9375,-0.0868296035 171.113281,0.170983196 C175.394531,0.514733196 177.652344,1.3702022 179.710938,3.4287952 C181.242188,4.9600452 181.964844,6.2647332 182.507813,8.4795772 C182.664063,9.1084832 182.691406,10.5030142 182.746094,20.2959832 C182.808594,31.2842642 182.8125,31.4014522 183.03125,31.8233272 C183.5625,32.8389522 184.859375,33.0967642 186.304688,32.4756702 L186.703125,32.2998892 L186.703125,36.9756702 L185.824219,37.1202022 C184.742188,37.2998892 182.367188,37.3037952 181.597656,37.1280142 C180.289063,36.8311392 179.199219,36.0030142 178.644531,34.8936392 C178.332031,34.2647332 178.0625,33.1280142 178.058594,32.4287952 C178.058594,32.1748892 178.015625,31.9795772 177.964844,32.0030142 C177.914063,32.0225452 177.585938,32.3975452 177.234375,32.8389522 C175.289063,35.2959832 173.433594,36.6709832 170.980469,37.4717642 C168.847656,38.1670772 166.09375,38.4209832 163.4375,38.1670772 Z M36.410156,38.1748892 C35.15625,38.0537952 33.960938,37.8233272 32.800781,37.4756702 C28.414063,36.1553582 25.230469,32.7178582 24.011719,27.9912952 C23.4375,25.7608272 23.460938,26.3194202 23.417969,13.2256702 L23.378906,1.0303582 L28.402344,1.0303582 L28.402344,12.6709832 C28.402344,20.3077022 28.445313,24.6670772 28.519531,25.3467642 C28.953125,29.2491082 31.292969,31.9053582 35.449219,33.2100452 C37.480469,33.8467642 39.113281,33.8780142 41.089844,33.3116082 C44.664063,32.2881702 46.796875,30.0498892 47.503906,26.5772332 C47.71875,25.5225452 47.722656,25.2022332 47.722656,13.2647332 L47.722656,1.0303582 L53.0625,1.0303582 L53.0625,12.9991082 C53.0625,25.9600452 53.058594,26.0186392 52.472656,28.1983272 C51.183594,32.9952022 47.871094,36.3858272 43.300781,37.5967642 C41.230469,38.1436392 38.5,38.3741082 36.410156,38.1748892" id="Shape"></path>
        </g>
    </g>
</svg>