<?xml version="1.0" encoding="UTF-8"?>
<svg width="333px" height="354px" viewBox="0 0 333 354" version="1.1" xmlns="http://www.w3.org/2000/svg" xmlns:xlink="http://www.w3.org/1999/xlink">
    <title>Logo</title>
    <g id="Page-1" stroke="none" stroke-width="1" fill="none" fill-rule="evenodd">
        <g id="Group-3" transform="translate(-547.000000, 0.326430)" fill="#BBBBBB" fill-rule="nonzero">
            <g id="Logo" transform="translate(547.526826, 0.000000)">
                <path d="M136.275965,4.22107159 C131.492084,6.190905 126.708203,10.6933814 125.582584,14.0702386 C122.487131,23.9194057 126.708203,39.3966682 134.868941,46.994597 C157.944133,68.099955 166.949086,77.3863125 171.170157,84.7028366 C173.984205,89.2053129 176.798253,92.863575 177.923872,92.863575 C180.737919,92.863575 195.652372,74.8536695 200.999063,65.0045025 C203.813111,59.6578118 205.782944,49.8086448 205.782944,41.6479063 C205.782944,16.3214768 187.210229,0 158.788347,0 C151.471823,0.281404773 141.341251,1.96983341 136.275965,4.22107159 L136.275965,4.22107159 Z" id="Path"></path>
                <path d="M282.606447,44.4619541 C279.22959,46.994597 272.475875,56.8437641 267.691994,66.1301216 C262.908113,75.4164791 253.058946,90.330932 246.305231,99.3358847 C239.551517,108.059433 233.923421,116.220171 233.923421,117.064385 C233.923421,119.878433 276.978352,116.220171 295.269662,111.717695 C305.118829,109.466457 317.219234,104.119766 322.565925,99.8986943 C332.133687,92.863575 332.415092,91.7379559 332.415092,74.5722647 C332.415092,56.2809545 332.415092,56.2809545 320.596091,47.8388113 C307.370067,37.9896443 292.174209,36.8640252 282.606447,44.4619541 L282.606447,44.4619541 Z" id="Path"></path>
                <path d="M20.0557942,63.8788834 C17.804556,64.7230977 12.4578653,68.6627645 8.23679375,72.6024313 C-2.45658761,82.4515984 -2.73799238,101.024313 7.39257943,110.592076 C23.1512467,124.943719 86.4673205,131.697434 111.230941,121.285457 L119.391679,117.9086 L109.823917,111.154885 C104.477226,107.215218 97.1607019,101.868528 93.2210351,99.3358847 C89.562773,96.521837 78.3065821,86.9540747 68.7388199,77.949122 C52.4173431,63.0346691 50.1661049,61.90905 37.7842949,62.1904548 C30.186366,62.1904548 22.3070324,63.0346691 20.0557942,63.8788834 L20.0557942,63.8788834 Z" id="Path"></path>
                <path d="M161.602395,120.441243 C149.50199,125.506529 139.371418,133.385862 135.150346,140.983791 C132.899108,145.204863 134.306132,145.767672 148.93918,144.360648 C163.290823,142.953624 165.542062,143.516434 170.888752,149.425934 C180.737919,160.682125 182.989158,169.405673 179.049491,178.973435 C172.014371,195.576317 157.381323,202.611436 143.873894,195.857722 C136.55737,192.480864 135.431751,192.480864 135.431751,195.857722 C135.431751,200.641603 142.748275,207.958127 154.285871,214.430437 C167.7933,222.30977 194.808158,221.184151 208.315587,212.742008 C224.074254,202.892841 231.109374,189.104007 231.109374,168.842864 C231.109374,144.360648 220.978802,130.29041 196.215182,119.878433 C182.707753,114.250338 176.516848,114.531742 161.602395,120.441243 Z" id="Path"></path>
                <path d="M233.923421,229.34489 C230.827969,233.003152 231.390778,234.69158 235.893255,240.038271 C242.646969,247.354795 253.621755,270.429986 253.621755,277.465106 C253.621755,280.279154 255.872994,287.314273 258.687041,293.223773 C264.033732,305.324178 270.787447,308.138226 287.390328,305.886988 C321.440306,301.384511 331.852282,263.676272 304.837424,242.570914 C284.857685,226.812247 242.365565,218.932913 233.923421,229.34489 L233.923421,229.34489 Z" id="Path"></path>
                <path d="M107.291274,238.068438 C101.944583,241.16389 91.2512017,242.008104 64.799153,241.445295 C29.9049612,240.601081 29.0607469,240.601081 23.1512467,247.6362 C14.4276987,258.329581 14.9905083,280.560558 24.2768658,290.409725 C28.2165326,294.630797 34.6888424,299.133273 38.6285092,299.977488 C53.8243669,303.917154 83.6532728,290.972535 100.256154,273.806844 C111.230941,262.269248 121.361512,245.666367 121.361512,239.194057 C121.361512,232.721747 117.421846,232.440342 107.291274,238.068438 L107.291274,238.068438 Z" id="Path"></path>
                <path d="M173.7028,259.736605 C169.481728,266.49032 161.32099,274.932463 155.692895,278.30932 C139.934227,288.158487 134.587537,297.16344 133.180513,315.736155 C131.492084,336.278703 136.275965,343.876632 154.285871,350.067537 C166.949086,354.570014 168.074705,354.288609 180.456515,348.379109 C196.215182,340.499775 202.687492,328.117965 202.687492,306.731202 C202.687492,284.78163 191.149896,247.6362 184.396181,247.6362 C182.707753,247.6362 177.923872,252.982891 173.7028,259.736605 L173.7028,259.736605 Z" id="Path"></path>
            </g>
        </g>
    </g>
</svg>