<?xml version="1.0" encoding="UTF-8"?>
<svg width="2501px" height="1126px" viewBox="0 0 2501 1126" version="1.1" xmlns="http://www.w3.org/2000/svg" xmlns:xlink="http://www.w3.org/1999/xlink">
    <title>studio-ghibli</title>
    <g id="Page-1" stroke="none" stroke-width="1" fill="none" fill-rule="evenodd">
        <g id="studio-ghibli" transform="translate(0.724606, 0.662212)" fill="#BBBBBB" fill-rule="nonzero">
            <polygon id="Path" points="470.222649 686.759066 470.222649 685.096575 468.560157 685.096575 459.697702 683.434083"></polygon>
            <path d="M979.182604,958.682707 C989.707551,958.682707 999.120004,963.107684 1005.20747,972.532637 L1020.7199,963.107684 C1011.30744,947.607762 997.457513,940.407798 979.182604,940.407798 C966.445168,940.407798 955.93272,943.182784 948.182759,950.932745 C937.657812,958.682707 932.670337,968.107659 932.670337,980.295099 C932.670337,996.907515 945.420273,1009.09495 968.120159,1020.1574 L979.195104,1024.59488 C995.807521,1032.34484 1005.21997,1041.75729 1005.21997,1053.94473 L997.470013,1075.54462 L975.870121,1084.40708 L954.270229,1077.20711 L946.507767,1055.60722 L926.570367,1060.0322 C928.232859,1072.76964 932.657837,1083.28208 942.07029,1091.04454 C951.495243,1098.23201 962.02019,1103.23198 974.195129,1103.23198 C988.03256,1103.23198 1000.22,1098.24451 1011.30744,1089.38205 L1025.14487,1053.94473 C1025.14487,1034.00733 1012.95744,1018.49491 986.370068,1007.96996 L974.182629,1002.99499 C960.332698,996.907515 952.570237,989.157554 952.570237,980.295099 C952.570237,974.207629 955.90772,969.220154 961.99519,964.795176 L979.182604,958.682707 Z M1089.40705,961.445193 L1126.49437,961.445193 L1126.49437,943.170284 L1031.24484,943.170284 L1031.24484,961.445193 L1069.45715,961.445193 L1069.45715,1099.907 L1089.40705,1099.907 L1089.40705,961.445193 Z M1253.89373,1043.41978 L1253.89373,943.170284 L1233.94383,943.170284 L1233.94383,1035.65732 C1233.94383,1067.76966 1221.20639,1084.38208 1195.73152,1084.38208 C1170.80665,1084.38208 1158.61921,1067.76966 1158.61921,1035.65732 L1158.61921,943.170284 L1138.68181,943.170284 L1138.68181,1043.41978 C1138.68181,1060.0322 1143.10678,1075.53212 1154.18173,1086.61957 C1164.70668,1097.14451 1178.54411,1103.23198 1195.71902,1103.23198 C1213.99393,1103.23198 1227.83136,1097.14451 1238.35631,1086.61957 C1248.89376,1075.53212 1253.89373,1060.0322 1253.89373,1043.41978 M1312.59344,943.170284 L1278.81861,943.170284 L1278.81861,1099.907 L1310.93095,1099.907 L1306.50597,1081.61959 L1298.75601,1081.61959 L1298.75601,961.445193 L1306.50597,961.445193 C1355.24322,961.445193 1380.1806,981.94509 1380.1806,1021.81989 C1380.1806,1061.68219 1355.25572,1081.61959 1306.50597,1081.61959 L1310.93095,1099.907 C1336.95582,1099.907 1358.56821,1093.80703 1373.51813,1079.9571 C1390.68055,1066.11967 1400.1055,1046.18227 1400.1055,1020.1449 C1400.1055,995.232524 1390.68055,975.282624 1373.51813,961.445193 C1356.90572,949.270254 1336.95582,943.170284 1312.59344,943.170284 M1438.31781,943.170284 L1418.38041,943.170284 L1418.38041,1099.907 L1438.31781,1099.907 L1438.31781,943.170284 Z M1621.07939,1021.81989 C1621.07939,998.557507 1613.32943,980.282599 1596.71702,964.782676 C1579.5546,947.607762 1561.26719,940.407798 1538.56731,940.407798 C1515.30492,940.407798 1497.03001,947.607762 1481.53009,964.782676 L1493.71753,976.970115 C1505.90497,964.782676 1521.41739,958.682707 1538.57981,958.682707 C1556.85472,958.682707 1572.36714,964.782676 1584.55458,976.970115 C1595.35014,989.414277 1601.25421,1005.35836 1601.16699,1021.83239 C1601.31429,1038.46225 1594.72173,1054.44313 1582.89209,1066.13217 C1571.19677,1077.9601 1555.21289,1084.55204 1538.57981,1084.40708 C1521.41739,1084.40708 1507.56746,1078.31961 1495.38002,1066.13217 C1483.19258,1053.94473 1477.10511,1038.44481 1477.10511,1021.83239 C1477.10511,1004.65748 1483.19258,989.157554 1493.71753,976.970115 L1481.53009,964.782676 C1464.35518,980.282599 1456.60522,998.557507 1456.60522,1021.81989 C1456.60522,1044.51978 1464.35518,1064.45718 1481.53009,1079.9571 C1497.03001,1095.46952 1515.30492,1103.21948 1538.56731,1103.21948 C1561.26719,1103.21948 1581.20459,1095.46952 1596.71702,1079.9571 C1613.32943,1064.46968 1621.07939,1044.53228 1621.07939,1021.81989 M1821.01589,983.057585 L1834.85333,970.857646 C1817.69091,950.920245 1797.74101,940.395298 1771.71614,940.395298 C1749.01625,940.395298 1730.17885,947.595262 1713.56643,964.770176 C1698.06651,980.270099 1690.31655,998.545007 1690.31655,1021.80739 C1690.31655,1044.50728 1698.06651,1063.34468 1713.56643,1078.29461 C1729.06635,1095.46952 1747.35376,1103.21948 1768.95366,1103.21948 C1790.55355,1103.21948 1808.81596,1095.46952 1822.67839,1081.60709 C1836.51582,1067.76966 1844.27828,1049.49475 1844.27828,1027.89486 L1844.27828,1021.80739 L1781.14109,1021.80739 L1781.14109,1038.41981 L1822.67839,1038.41981 L1805.50347,1072.74464 L1770.06615,1086.59457 C1753.44123,1086.59457 1739.5913,1079.9446 1727.41636,1066.09467 C1715.24142,1052.24474 1708.59146,1038.40731 1708.59146,1021.79489 C1708.59146,1004.61998 1715.22892,989.120054 1727.41636,976.932615 C1739.6038,963.082685 1755.11622,956.982715 1771.72864,956.982715 C1791.65354,957.020215 1808.81596,966.445168 1821.01589,983.057585 M1860.8782,943.170284 L1860.8782,1099.907 L1880.8281,1099.907 L1880.8281,1024.59488 L1956.15272,1024.59488 L1956.15272,1099.907 L1974.41513,1099.907 L1974.41513,943.170284 L1956.15272,943.170284 L1956.15272,1006.30747 L1880.8281,1006.30747 L1880.8281,943.170284 L1860.8782,943.170284 Z M2022.05239,1099.907 L2022.05239,943.170284 L2002.11499,943.170284 L2002.11499,1099.907 L2022.05239,1099.907 Z M2069.68965,943.170284 L2049.75225,943.170284 L2049.75225,1099.907 L2086.85207,1099.907 L2125.07687,1091.04454 C2136.15182,1083.28208 2142.23929,1070.54465 2142.23929,1056.70722 L2132.82684,1030.66985 C2127.25957,1023.37796 2119.15919,1018.44011 2110.12695,1016.83242 L2110.12695,1015.73242 C2120.6519,1010.74495 2126.73937,1000.22 2126.73937,986.370068 C2126.72687,957.020215 2108.45196,943.170284 2069.68965,943.170284 L2069.68965,960.345198 L2074.66463,960.345198 C2097.36451,960.345198 2108.45196,969.207654 2108.45196,986.370068 C2108.45196,1002.98249 2097.36451,1012.39494 2074.66463,1012.39494 L2069.68965,1012.39494 L2069.68965,1027.90736 L2082.42709,1027.90736 C2108.46446,1027.90736 2122.30189,1036.76982 2122.30189,1055.59472 C2122.30189,1073.86963 2110.11445,1083.28208 2085.18957,1083.28208 L2069.68965,1083.28208 L2069.68965,960.345198 M2163.83918,1099.907 L2231.40134,1099.907 L2231.40134,1081.63209 L2182.11409,1081.63209 L2182.11409,943.170284 L2163.83918,943.170284 L2163.83918,1099.907 Z M2261.86369,1099.907 L2261.86369,943.170284 L2241.92629,943.170284 L2241.92629,1099.907 L2261.86369,1099.907 Z M947.207764,683.434083 L947.207764,708.346458 L1061.30719,708.346458 C1050.21975,738.821306 1031.94484,766.496168 1007.03246,790.871046 C984.320078,814.133429 961.057695,829.645852 935.020325,838.508307 L950.532747,859.008205 C980.995095,846.258269 1010.34495,825.220874 1038.03231,792.546037 L1105.59447,860.120699 L1125.54437,838.508307 L1051.88224,774.258629 C1071.81964,746.571267 1087.31956,716.121419 1095.06952,683.434083 L947.207764,683.434083 Z M1202.51899,722.196389 L1279.4936,722.196389 C1274.51863,744.908775 1265.65617,763.733681 1252.91874,780.346098 L1202.51899,748.233759 L1185.34407,764.846176 L1236.30632,798.621007 C1208.60646,821.883391 1177.59411,837.408313 1142.70679,843.483283 L1156.54422,865.095675 C1244.05628,845.158274 1296.11852,789.783551 1309.95595,700.608997 L1216.35642,700.608997 L1228.54386,677.346613 L1202.51899,671.246644 C1187.01906,711.121444 1162.65669,740.471298 1128.85686,757.096215 L1145.46927,775.92112 L1202.51899,722.196389 Z M1498.83001,723.308883 L1473.90513,712.783936 C1460.0677,754.321228 1443.44278,784.783576 1420.7429,801.95849 C1400.8055,818.570907 1368.13066,827.98336 1327.14336,831.308343 L1333.23083,857.345713 C1380.8681,852.358238 1415.75542,838.508307 1442.34279,817.470913 C1463.38018,797.521012 1482.20509,766.508667 1498.83001,723.308883 M1508.24246,695.621522 L1497.73001,663.484183 L1478.89261,666.821666 L1491.06754,700.596497 L1508.24246,695.621522 Z M1323.81838,729.396353 L1314.40593,752.658737 L1375.88062,777.021115 L1385.29307,752.658737 L1323.81838,729.396353 Z M1342.09329,680.659097 L1331.56834,703.358983 C1352.67821,709.363526 1373.24294,717.141157 1393.04303,726.608867 L1403.56798,703.358983 L1342.09329,680.659097 Z M1448.43026,669.584152 L1458.94271,705.033975 L1477.23011,700.596497 L1466.70517,665.146674 L1448.43026,669.584152 Z M1743.07878,680.659097 L1732.54134,703.358983 C1752.49124,708.333958 1772.41614,716.108919 1792.35354,726.608867 L1804.55348,703.358983 L1743.07878,680.659097 Z M1724.79138,729.396353 L1714.26643,752.658737 L1775.74112,777.021115 L1786.26607,752.658737 C1774.07863,744.908775 1754.14123,737.146314 1724.79138,729.396353 M1898.69051,723.308883 L1875.44062,712.783936 C1861.59069,754.321228 1843.31578,784.783576 1821.71589,801.95849 C1801.77849,818.570907 1769.65365,827.98336 1728.11636,831.308343 L1734.20383,857.345713 C1781.84109,852.358238 1817.27841,838.508307 1841.65329,817.470913 C1864.91568,797.521012 1883.19058,766.508667 1898.69051,723.308883 M1890.94055,700.596497 L1909.21545,695.621522 L1898.69051,663.484183 L1879.8656,666.821666 L1890.94055,700.596497 Z M1859.9157,705.033975 L1878.75311,700.596497 L1867.67816,665.146674 L1849.40325,669.584152 L1859.9157,705.033975 Z M2115.23942,689.521552 L2105.82697,659.059205 L2087.55206,663.484183 L2096.96452,694.509027 L2115.23942,689.521552 Z M2077.01461,692.846536 L2084.21458,691.184044 L2075.35212,660.709196 L2055.41472,665.134174 L2064.27718,692.834036 L1924.71538,692.834036 L1924.71538,717.196414 L2063.16468,717.196414 C2058.18971,758.733706 2041.56479,790.858546 2012.21494,811.345943 L1942.99029,835.708321 L1956.82772,860.0832 C2041.56479,841.795791 2085.86457,786.421068 2090.31455,692.821536 L2077.01461,692.821536 M2273.63863,677.334113 L2247.05126,677.334113 L2247.05126,770.933645 C2247.05126,797.521012 2238.18881,815.795921 2219.9139,826.320868 L2149.01425,840.158299 L2156.77672,865.083175 L2208.82646,855.670722 L2240.9513,840.158299 C2262.55119,823.545882 2273.62613,797.521012 2273.62613,760.408698 L2273.62613,677.334113 M2162.87669,680.659097 L2137.93931,680.659097 L2137.93931,800.295999 L2162.87669,800.295999 L2162.87669,680.659097 Z M1517.65491,708.346458 L1517.65491,732.708836 L1611.25444,732.708836 C1594.07953,763.721181 1563.61718,794.196029 1518.75491,825.195874 L1532.60484,846.245769 C1563.61718,826.308368 1587.99206,803.608482 1606.81697,780.346098 L1626.20437,752.658737 L1626.20437,861.770691 L1651.12924,861.770691 L1651.12924,732.708836 L1700.4165,732.708836 L1700.4165,708.346458 L1649.46675,708.346458 L1649.46675,672.909135 L1626.20437,672.909135 L1626.20437,708.346458 L1517.65491,708.346458 Z M2500,901.632992 L2500,898.870506 L702.271489,898.870506 L702.271489,901.632992 L2500,901.632992 Z M722.208889,334.523327 L722.208889,331.748341 L702.271489,331.748341 L697.834011,334.523327 L697.834011,336.185819 L708.358958,334.523327 L719.433903,336.185819 L722.208889,334.523327 Z M473.535132,536.109819 L471.872641,534.447328 L471.872641,530.02235 L470.222649,525.034875 L470.222649,522.272389 L467.447663,516.172419 L465.785171,511.184944 L464.122679,510.08495 L464.122679,506.759966 L462.460188,505.097475 L459.697702,498.997505 L458.03521,497.897511 L455.260224,492.910035 L451.94774,490.135049 L427.572862,482.385088 L407.085465,484.04758 L396.560517,487.372563 L388.810556,492.910035 L387.135564,496.235019 L386.03557,497.897511 L384.373078,501.222494 L382.723086,502.334988 L382.723086,503.99748 L381.060595,505.097475 L381.060595,506.759966 L379.9481,508.422458 L379.9481,512.847436 L378.285609,516.172419 L378.285609,520.609897 L376.623117,523.92238 L376.623117,526.697367 L374.960625,526.697367 L374.960625,534.447328 L373.298134,538.884806 L370.523147,542.197289 L370.523147,543.859781 L372.198139,543.859781 L374.960625,548.297259 L374.960625,562.147189 L376.623117,562.147189 L376.623117,563.809681 L378.285609,566.559667 L378.285609,568.222159 L381.060595,572.672137 L384.373078,569.897151 L384.373078,568.222159 L382.723086,565.472173 L382.723086,559.372203 L381.060595,557.709711 L381.060595,536.109819 L382.723086,534.447328 L382.723086,531.672342 L384.373078,531.672342 L384.373078,518.947405 L386.03557,517.834911 L386.03557,512.847436 L387.135564,511.184944 L387.135564,506.759966 L388.810556,506.759966 L392.123039,501.222494 L394.898026,497.897511 L419.822901,488.472558 L434.772826,490.135049 L444.185279,494.572527 L450.285249,501.222494 L451.94774,501.222494 L451.94774,502.334988 L456.372718,511.184944 L458.03521,512.847436 L458.03521,515.059925 L459.697702,517.834911 L461.360193,518.947405 L462.460188,523.92238 L462.460188,525.034875 L464.122679,526.697367 L464.122679,531.672342 L465.785171,532.784836 L465.785171,538.884806 L467.447663,545.534772 L467.447663,552.722236 L465.785171,556.05972 L462.460188,560.472198 L459.697702,562.147189 L451.94774,568.222159 L444.185279,572.672137 L425.92287,580.422098 L416.497918,582.08459 L399.885501,579.309603 L394.898026,577.647112 L393.785531,577.647112 L390.473048,574.334628 L386.03557,571.559642 L384.373078,569.897151 L381.060595,572.672137 L394.898026,583.747081 L404.310478,586.509567 L416.497918,588.172059 L439.760301,582.08459 L456.372718,572.672137 L467.447663,563.809681 L470.222649,559.372203 L471.872641,557.709711 L481.285094,557.709711 L482.397588,554.384728 L477.97261,551.609742 L475.210124,548.297259 L473.535132,545.534772 L473.535132,536.109819 Z M289.111054,517.834911 L289.111054,518.947405 L291.886041,520.609897 L293.548532,517.834911 L293.548532,516.172419 L295.211024,512.847436 L295.211024,510.08495 L296.861016,506.759966 L296.861016,503.99748 L298.523507,498.997505 L298.523507,497.897511 L296.861016,496.235019 L295.211024,497.897511 L295.211024,498.997505 L293.548532,498.997505 L293.548532,503.99748 L291.886041,503.99748 L291.886041,510.08495 L290.773546,510.08495 L290.773546,511.184944 L289.111054,517.834911 Z M304.610977,511.184944 L299.636002,511.184944 L298.523507,515.059925 L299.636002,517.834911 L302.960985,517.834911 L304.610977,515.059925 L304.610977,511.184944 Z M311.823441,516.172419 L307.385963,516.172419 L307.385963,517.834911 L310.723446,520.609897 L311.823441,518.947405 L311.823441,516.172419 Z M321.248394,518.947405 L318.473408,518.947405 L316.810916,522.272389 L318.473408,523.92238 L321.248394,525.034875 L322.898386,523.92238 L322.898386,520.609897 L321.248394,518.947405 Z" id="Shape"></path>
            <path d="M388.810556,532.784836 L388.810556,548.297259 L390.473048,549.94725 L394.898026,556.05972 L402.647987,556.05972 L405.97297,554.384728 L408.747956,549.94725 L408.747956,530.02235 L404.310478,534.447328 L405.97297,536.109819 L404.310478,538.884806 L402.647987,537.772311 L402.647987,534.447328 L404.310478,534.447328 L408.747956,530.02235 L407.085465,525.034875 L405.97297,522.272389 L402.647987,518.947405 L396.560517,520.609897 L390.473048,526.697367 L390.473048,530.02235 L388.810556,532.784836 Z M235.386323,575.98462 L235.386323,574.334628 L233.736331,571.559642 L229.298854,568.222159 L219.886401,569.897151 L218.223909,572.672137 L216.573917,574.334628 L216.573917,577.647112 L215.461423,579.309603 L221.548892,582.08459 L233.736331,579.309603 L235.386323,575.98462 Z M402.647987,635.809321 L400.985495,640.784296 L400.985495,641.896791 L405.97297,646.871766 L412.06044,641.896791 L410.397948,640.784296 L444.185279,641.896791 L444.185279,643.559282 L419.822901,643.559282 L412.06044,641.896791 L405.97297,646.871766 L425.92287,649.646752 L563.822181,659.059205 L573.234634,661.834191 L582.647087,661.834191 L613.109434,667.92166 L620.859396,667.92166 L622.521887,666.821666 L619.196904,661.834191 L596.497018,657.396713 L574.897126,655.734221 L561.047195,652.971735 L402.647987,635.809321 Z M372.198139,666.821666 L352.248239,666.821666 L353.360733,667.92166 L361.110694,672.909135 L393.785531,675.671622 L425.92287,683.434083 L425.92287,680.659097 L420.922895,675.671622 L405.97297,674.571627 L392.123039,669.584152 L372.198139,666.821666 Z" id="Shape"></path>
            <path d="M622.521887,724.958875 L622.521887,722.196389 L619.196904,718.871406 L611.434443,714.446428 L610.334448,720.533897 L610.334448,722.196389 L594.822026,722.196389 L569.90965,714.446428 L561.047195,712.783936 L482.397588,689.521552 L475.210124,686.759066 L487.397563,688.421558 L507.322463,694.509027 L514.522427,694.509027 L602.584487,717.208914 L610.334448,720.533897 L611.434443,714.446428 L562.709686,702.258989 L553.297234,698.934005 L400.985495,663.484183 L396.560517,661.834191 L382.723086,659.059205 L376.623117,659.059205 L366.09817,655.734221 L350.585747,657.396713 L348.923255,659.059205 L350.585747,661.834191 L355.023225,659.059205 L362.773186,661.834191 L382.723086,665.146674 L393.785531,669.584152 L428.672857,674.571627 L430.347848,675.671622 L442.535287,679.009105 L438.09781,680.659097 L434.772826,685.096575 L436.435318,685.096575 L573.234634,722.196389 L611.434443,728.296359 L622.521887,724.958875 Z M223.211384,697.284014 L223.211384,694.509027 L219.886401,691.184044 L212.136439,692.846536 L210.473948,694.509027 L210.473948,695.621522 L223.211384,697.284014 Z M393.785531,716.108919 L393.785531,722.196389 L399.885501,726.621367 L404.310478,722.196389 L399.885501,718.871406 L400.985495,717.208914 L419.822901,723.308883 L422.585387,723.308883 L495.147524,754.321228 L499.572502,755.98372 L521.172394,768.158659 L521.172394,769.821151 L519.509902,769.821151 L422.585387,729.396353 L416.497918,728.296359 L404.310478,722.196389 L399.885501,726.621367 L484.06008,758.746206 L485.735071,760.408698 L495.147524,764.846176 L502.897486,766.508667 L531.684842,778.683607 L536.672317,780.346098 L545.534772,782.00859 L547.209764,780.346098 L541.109794,775.92112 L535.009825,769.821151 L502.897486,749.883751 L493.485033,746.571267 L487.397563,743.246284 L408.747956,714.446428 L396.560517,712.783936 L393.785531,716.108919 Z M336.748316,815.795921 L335.085825,814.133429 L330.660847,812.470938 L327.335863,812.470938 L328.998355,818.558407 L338.410808,823.533382 L342.835786,826.308368 L347.260764,827.97086 L348.923255,831.295844 L348.923255,832.408338 L359.448203,837.395813 L366.09817,841.820791 L367.198164,841.820791 L370.523147,846.245769 L373.298134,852.333238 L373.298134,854.558227 L376.635617,855.670722 L381.060595,860.0957 L386.03557,863.420683 L388.810556,869.508152 L390.473048,871.170644 L392.135539,871.170644 L396.560517,877.258114 L410.397948,891.095545 L410.397948,892.758036 L412.06044,893.870531 L412.06044,896.09552 L414.835426,898.870506 L414.835426,899.9705 L418.160409,903.295484 L418.160409,904.970475 L419.835401,906.632967 L420.935395,911.057945 L422.597887,912.720436 L424.260379,920.470398 L424.260379,923.245384 L425.93537,929.332853 L425.93537,932.657837 L427.597862,935.432823 L430.372848,938.757806 L432.03534,941.532792 L432.03534,943.195284 L436.460318,947.620262 L436.460318,949.282754 L438.122809,950.945245 L438.122809,955.370223 L439.785301,958.695207 L441.447793,963.120184 L441.447793,969.220154 L455.285224,984.720076 L456.397718,992.470038 L456.397718,1020.1574 L458.06021,1022.93239 L458.06021,1026.26987 L459.722701,1027.93236 L459.722701,1036.79482 L458.06021,1038.45731 L458.06021,1041.78229 L464.147679,1046.20727 L464.147679,1049.53225 L462.485188,1053.95723 L462.485188,1060.0447 L464.147679,1061.70719 L467.472663,1055.61972 L467.472663,1053.95723 L468.585157,1052.29474 L468.585157,1047.86976 L465.810171,1044.54478 L467.472663,1035.68232 L465.810171,1035.68232 L465.810171,1026.26987 L464.147679,1021.84489 L464.147679,1010.75745 L462.485188,1000.2325 L462.485188,998.570007 L464.147679,995.245024 L464.147679,984.720076 L448.647757,969.220154 C447.535262,968.107659 445.872771,966.445168 447.535262,963.120184 L445.872771,955.370223 L445.872771,954.270229 L444.210279,950.932745 L444.210279,947.607762 L442.547787,946.495268 L441.435293,943.170284 L436.460318,938.745306 L436.460318,937.082815 L434.785326,935.420323 L433.685332,932.645337 L432.02284,926.557867 L432.02284,924.895376 L430.360348,921.570392 L430.360348,913.807931 L428.685357,911.045445 L428.685357,909.93295 L427.585362,909.93295 L427.585362,906.607967 L425.92287,904.945475 L422.585387,899.958 L420.922895,897.183014 L418.147909,893.858031 L418.147909,892.745536 L416.485418,891.083045 L416.485418,889.458053 L412.06044,886.133069 L412.06044,885.020575 L399.873001,872.833136 L398.210509,869.508152 L390.460548,861.758191 L387.135564,857.333213 L387.135564,855.670722 L386.03557,854.558227 L384.373078,854.558227 L381.048095,851.233244 L378.273109,846.245769 L378.273109,843.470783 L374.948125,840.145799 L373.273134,837.383313 L370.498148,835.708321 L356.660717,831.283344 L352.235739,827.95836 L353.348233,827.95836 L353.348233,825.208374 L348.923255,821.883391 L336.748316,815.795921 Z M198.299009,938.745306 C193.861531,937.082815 187.761561,938.745306 180.0116,944.832776 L176.686617,947.607762 L167.824161,950.932745 L160.0742,958.682707 L144.574277,969.220154 L142.911785,972.545137 L135.149324,980.295099 L134.04933,983.070085 L132.374338,984.732576 L132.374338,988.05756 L135.149324,990.832546 L160.0742,989.170054 L168.936655,988.05756 L173.91163,988.05756 L178.336608,990.832546 L182.761586,995.257524 L188.849056,1000.2325 L192.174039,1004.65748 L196.599017,1009.08245 L198.274009,1012.40744 L201.598992,1015.74492 L202.698987,1018.50741 L202.698987,1020.1699 L206.03647,1022.94489 L207.698962,1027.93236 L209.361453,1029.59485 L218.223909,1034.01983 L221.548892,1030.68235 L223.211384,1030.68235 L223.211384,1007.98246 L224.323878,1007.98246 L224.323878,1001.89499 L225.98637,1000.2325 L225.98637,996.907515 L224.323878,994.132529 L224.323878,988.04506 L223.211384,983.070085 L223.211384,978.645107 L221.548892,978.645107 L221.548892,974.220129 L219.886401,972.557637 L216.561417,974.220129 L218.223909,983.082585 L218.223909,992.495038 L219.886401,996.920015 L219.886401,1004.66998 L218.223909,1004.66998 L218.223909,1021.84489 L216.561417,1024.61988 L213.786431,1026.28237 L209.361453,1021.85739 L209.361453,1020.1824 L207.698962,1018.51991 L207.698962,1015.75742 L204.373978,1012.41994 L199.949,1006.33247 L198.286509,1004.66998 L196.611517,1001.89499 L196.611517,1000.2325 L193.836531,996.907515 L190.511547,995.245024 L188.849056,994.132529 L187.736561,990.807546 L179.9866,986.382568 L166.149169,980.295099 L156.736716,983.070085 L146.211769,983.070085 L146.211769,978.645107 L166.149169,964.807676 L170.574147,958.707706 L195.524022,944.832776 L199.949,946.495268 L201.611492,947.607762 L204.386478,949.270254 L206.04897,952.595237 L207.711461,954.270229 L209.373953,957.032715 L210.486448,958.695207 L210.486448,961.470193 L212.148939,961.470193 L212.148939,964.807676 L213.811431,966.470168 L213.811431,969.245154 L215.473923,969.245154 L215.473923,972.570137 L216.586417,974.232629 L219.9114,972.570137 L219.9114,968.145159 L218.248909,964.820176 L216.586417,960.395198 L216.586417,958.720206 L215.473923,954.295229 L215.473923,952.582737 L213.811431,950.920245 L213.811431,949.257754 L212.148939,947.595262 L204.398978,941.507792 L198.299009,938.745306 Z M362.773186,1067.78216 L362.773186,1066.11967 L361.110694,1064.45718 L361.110694,1063.35718 L347.273264,1049.50725 L341.185794,1047.84476 L333.435833,1049.50725 L319.598402,1056.70722 L309.073455,1067.78216 L309.073455,1070.55715 L301.310993,1078.30711 L295.223524,1083.28208 L293.561032,1086.61957 L291.898541,1087.73206 L289.123554,1092.15704 L289.123554,1095.49452 L290.786046,1097.15701 L307.398463,1099.932 L325.685872,1099.932 L325.685872,1095.50702 L315.148424,1093.83203 L299.648502,1093.83203 L298.536007,1091.06954 L298.536007,1087.74456 L299.648502,1086.63207 L302.973485,1084.40708 L304.635977,1083.29458 L313.498433,1075.54462 L315.160924,1073.88213 L321.260894,1066.13217 L324.585877,1064.46968 C329.010855,1060.0447 333.448333,1056.71972 338.423308,1055.60722 L346.173269,1055.60722 L353.373233,1063.36968 L356.698217,1067.79466 L356.698217,1070.56965 L358.360708,1070.56965 L358.360708,1073.89463 L359.473203,1077.21961 L359.473203,1079.9946 L361.135694,1095.50702 L361.135694,1098.26951 L362.798186,1098.26951 L362.798186,1107.69446 L364.473178,1112.11944 L364.473178,1117.09441 L362.798186,1118.20691 L356.710716,1118.20691 L347.298264,1109.34445 L347.298264,1107.68196 L346.185769,1107.68196 L341.210794,1103.25698 L339.548302,1099.932 L338.435808,1099.932 L325.698372,1095.50702 L325.698372,1101.59449 L327.360863,1101.59449 L335.110824,1104.36948 L339.535802,1109.34445 L342.860786,1113.76943 L344.523277,1113.76943 L347.298264,1118.19441 L350.623247,1121.51939 L361.148194,1124.84438 L368.910655,1123.18188 L370.560647,1119.8569 L370.560647,1115.43192 L368.910655,1107.68196 L368.910655,1099.932 L367.235664,1092.16954 L367.235664,1084.41958 L366.135669,1077.21961 L366.135669,1073.89463 L364.473178,1072.78214 L364.473178,1069.45715 L362.773186,1067.78216 Z M916.05792,456.360218 L932.670337,466.885166 L935.98282,471.310143 L942.08279,476.297619 L935.98282,482.385088 L935.98282,485.160074 L945.407773,488.472558 L948.182759,491.247544 L948.182759,492.910035 L951.495243,496.235019 L952.595237,498.997505 L955.93272,501.222494 L957.595212,503.99748 L960.345198,508.422458 L962.02019,510.08495 L965.345173,515.059925 L965.345173,520.609897 L963.682682,520.609897 L962.02019,523.92238 L962.02019,525.034875 L965.345173,528.909855 L968.120159,532.784836 L968.120159,534.447328 L975.870121,542.197289 L979.182604,546.634767 L979.182604,548.297259 L981.95759,554.384728 L981.95759,560.472198 L983.620082,562.147189 L985.282574,565.472173 L985.282574,566.559667 L986.382568,566.559667 L986.382568,574.334628 L989.707551,580.422098 L989.707551,582.08459 L991.370043,585.397073 L993.045035,586.509567 L993.045035,589.834551 L994.145029,593.147034 L997.457513,597.584512 L997.457513,599.247004 L999.120004,602.00949 L1000.2325,603.671982 L1000.2325,608.109459 L1001.89499,608.109459 L1001.89499,611.421943 L1003.55748,615.859421 L1003.55748,619.184404 L1005.20747,619.184404 L1005.20747,621.95939 L1006.88247,625.284374 L1007.98246,626.946865 L1007.98246,628.04686 L1009.65745,629.709351 L1011.31994,634.146829 L1012.96994,637.459313 L1014.06993,639.121804 L1015.73242,641.896791 L1015.73242,643.559282 L1017.40741,647.98426 L1017.40741,649.646752 L1019.0699,655.734221 L1020.7324,659.059205 L1020.7324,661.834191 L1021.83239,666.821666 L1021.83239,669.584152 L1023.49488,669.584152 L1023.49488,674.571627 L1026.81987,680.659097 L1026.81987,688.421558 L1027.93236,688.421558 L1027.93236,691.184044 L1034.01983,691.184044 L1034.01983,688.421558 L1032.90734,688.421558 L1032.90734,683.434083 L1031.24484,683.434083 L1031.24484,680.659097 L1029.59485,679.009105 L1029.59485,671.246644 L1027.93236,667.92166 L1026.81987,666.821666 L1026.81987,661.834191 L1025.15737,655.734221 L1025.15737,652.971735 L1023.49488,649.646752 L1023.49488,647.98426 L1021.83239,646.871766 L1021.83239,643.559282 L1020.7324,641.896791 L1019.0699,637.459313 L1019.0699,635.809321 L1017.40741,635.809321 L1017.40741,633.034335 L1015.73242,631.371843 L1015.73242,628.04686 L1014.06993,626.946865 L1011.31994,617.534412 L1011.31994,615.859421 L1009.65745,614.196929 L1007.98246,611.421943 L1007.98246,609.771951 L1003.55748,600.359498 L1003.55748,597.584512 L1001.89499,595.92202 L1000.2325,591.497043 L1000.2325,589.834551 L999.120004,588.172059 L997.457513,585.397073 L997.457513,582.08459 L995.795021,580.422098 L993.045035,574.334628 L993.045035,571.559642 L991.370043,571.559642 L991.370043,568.222159 L989.707551,563.809681 L989.707551,560.472198 L988.04506,559.372203 L988.04506,557.709711 L986.382568,554.384728 L986.382568,552.722236 L985.282574,549.94725 L985.282574,546.634767 L983.620082,545.534772 L981.95759,542.197289 L979.182604,537.772311 L977.520112,534.447328 L973.095135,530.02235 L974.207629,526.697367 L974.207629,522.272389 L973.095135,517.834911 L971.432643,515.059925 L969.770151,515.059925 L969.770151,511.184944 L968.120159,511.184944 L966.457668,508.422458 L962.02019,502.334988 L960.345198,498.997505 L954.270229,490.135049 L952.595237,488.472558 L952.595237,487.372563 L949.845251,482.385088 L948.182759,480.722596 L948.182759,477.410113 L946.507767,476.297619 L943.732781,471.310143 L942.08279,468.547657 L934.320328,460.797696 L929.895351,454.697727 L928.232859,454.697727 L922.145389,449.710251 L914.395428,453.022735 L916.05792,456.360218 Z M402.647987,253.098735 L399.885501,250.336248 L399.885501,248.673757 L398.223009,247.011265 L394.898026,245.348773 L392.123039,248.673757 L394.898026,251.98624 L398.223009,260.848696 L398.223009,266.948665 L396.560517,266.948665 L396.560517,268.623657 L394.898026,270.273649 L392.123039,274.698627 L384.373078,271.93614 L382.723086,268.623657 L379.9481,265.848671 L379.9481,264.173679 L378.285609,260.848696 L378.285609,259.198704 L379.9481,259.198704 L379.9481,254.761226 L381.060595,253.098735 L382.723086,250.336248 L392.123039,248.673757 L394.898026,245.348773 L388.810556,244.236279 L382.723086,244.236279 L378.285609,247.011265 L376.623117,248.673757 L373.298134,253.098735 L373.298134,265.848671 L374.960625,270.273649 L376.623117,271.93614 L378.285609,274.698627 L382.723086,276.373618 L394.898026,278.01111 L396.560517,274.698627 L400.985495,270.273649 L402.647987,265.848671 L402.647987,253.098735 Z" id="Shape"></path>
            <path d="M837.408313,6.0999695 L837.408313,16.6249169 L839.070805,21.0498948 L840.745796,22.7123864 L842.408288,26.0373698 L842.408288,32.1373393 L843.520782,36.5623172 L843.520782,40.9872951 L845.183274,44.3247784 L845.183274,58.1622092 L846.845766,58.1622092 L846.845766,67.5746621 L848.508257,68.6746566 L848.508257,72.0121399 L850.170749,73.6746316 L850.170749,81.4245929 L851.283244,81.4245929 L851.283244,102.486988 L852.945735,104.149479 L852.945735,107.474463 L854.608227,111.899441 L854.608227,125.736871 L856.270719,129.061855 L856.270719,133.486833 L857.383213,135.149324 L856.270719,136.261819 L857.383213,139.586802 L857.383213,151.774241 L859.045705,151.774241 L859.045705,171.724141 L860.708196,183.899081 L860.708196,208.823956 L859.045705,211.598942 L859.045705,242.611287 L857.383213,244.273779 L859.045705,247.048765 L859.045705,253.136234 L857.383213,253.136234 L857.383213,264.211179 L856.270719,266.986165 L856.270719,270.323648 L854.608227,273.086135 L854.608227,278.06111 L834.670827,285.823571 C829.683352,286.936065 825.245874,288.598557 822.470888,290.248549 L806.970965,293.023535 L793.133534,305.760971 L793.133534,317.94841 L791.471043,319.610902 L791.471043,322.385888 L789.808551,333.460833 L787.033565,337.885811 L785.371073,342.323288 L783.708581,343.97328 L782.04609,347.310763 L782.04609,350.08575 L780.933595,351.748241 L780.933595,356.173219 L783.708581,357.835711 L788.683557,354.510727 L789.796051,353.398233 L789.796051,350.07325 L797.546012,351.735741 L813.045935,359.485703 C826.895866,367.235664 836.308318,371.673142 839.070805,371.673142 L842.408288,373.335633 L856.245719,377.760611 L865.108174,382.185589 L874.520627,388.835556 L874.520627,391.610542 L866.770666,391.610542 L863.99568,394.935525 L886.695567,407.122964 L904.982975,420.960395 L904.982975,422.622887 L903.870481,423.735381 L891.120544,420.960395 L886.695567,423.735381 L892.795536,427.060365 C900.545497,428.722856 908.295459,432.04784 912.732936,436.485318 L928.232859,451.435243 L934.320328,456.410218 L938.745306,462.497688 L940.407798,462.497688 L938.745306,457.510212 L924.907875,443.672782 L923.795381,436.485318 L920.470398,434.822826 L917.695412,428.722856 L909.94545,417.647912 L890.02055,400.972995 L888.345558,399.310503 L891.120544,395.98552 L891.120544,393.210534 L882.258089,387.135564 L877.283114,382.148089 L866.758166,374.948125 L823.558382,359.448203 L808.608457,350.03575 L808.608457,347.260764 L819.133404,348.373258 L826.895866,348.373258 L826.895866,345.598272 L825.220874,343.92328 L806.945965,340.610797 L799.196004,334.523327 L800.858496,333.398333 L814.695927,336.185819 L819.120904,336.185819 L832.958335,339.510802 L837.383313,339.510802 L840.720796,337.835811 L839.045805,334.523327 L809.695952,328.423358 L800.833496,325.648372 L802.495988,323.98588 L805.270974,322.323388 L822.433388,323.98588 L848.470758,331.748341 L858.995705,336.173319 L862.320688,334.510827 L862.320688,331.735841 L860.658197,330.06085 L851.245744,323.97338 L837.395813,320.648397 L802.520987,316.235919 L800.858496,314.573427 L802.520987,313.460933 L809.720951,313.460933 L823.558382,311.798441 L846.820766,311.798441 L846.820766,310.135949 L832.970835,306.810966 L805.283474,306.810966 L803.620982,305.698472 L813.033435,300.723496 L829.645852,294.636027 L845.158274,291.861041 L856.233219,285.773571 L856.233219,284.09858 L862.320688,274.686127 L862.320688,268.611157 L863.98318,266.936165 L863.98318,222.636387 L865.095675,219.298904 L863.98318,216.536417 L865.095675,208.773956 L865.095675,163.91168 L863.98318,163.91168 L863.98318,147.299264 L862.320688,135.111824 L862.320688,127.361863 L860.658197,119.611902 L860.658197,111.861941 L858.995705,111.861941 L858.995705,105.774471 L857.333213,102.449488 L857.333213,98.0120099 L856.220719,93.5870321 L856.220719,68.6496568 L854.558227,67.5496623 L854.558227,58.1622092 L852.895736,54.8247259 L852.895736,50.4122479 L851.233244,48.7372563 L851.233244,38.2248089 L850.145749,36.5498173 L850.145749,30.4623477 L848.483258,28.799856 L848.483258,27.1373643 L846.820766,24.3623782 L846.820766,22.7123864 L839.058305,1.0999945 L834.645827,0 L823.558382,2.77498613 L820.783396,6.0999695 L819.120904,8.86245569 L817.458413,10.5374473 L814.695927,14.9624252 L808.608457,28.799856 L805.283474,32.1373393 L802.520987,38.2248089 L800.858496,39.8873006 L791.446043,52.0747396 L789.783551,54.8372258 L785.358573,59.8247009 L785.358573,62.5871871 L782.03359,65.9121704 L771.508642,85.8495708 L769.833651,90.2745486 L768.171159,91.9370403 L767.058665,95.2745236 L765.396173,99.6995015 L762.07119,102.474488 L760.958695,105.799471 L759.296204,107.461963 L755.97122,113.549432 L755.97122,115.211924 L754.858726,116.324418 L751.533742,125.736871 L748.208759,127.399363 L748.208759,129.061855 L745.433773,135.149324 L743.771281,136.261819 L742.108789,139.586802 L742.108789,141.249294 L740.996295,145.674272 L740.996295,147.336763 L739.333803,149.011755 L739.333803,151.774241 L737.671312,153.449233 L737.671312,157.874211 L736.00882,161.211694 L736.00882,165.636672 L729.92135,177.811611 L729.92135,179.486603 L728.258859,181.149094 L722.158889,190.561547 L720.496398,194.986525 L719.383903,196.649017 L717.721411,202.736486 L713.296434,208.823956 L711.621442,214.923925 L710.02145,216.561417 L708.358958,219.323903 L705.583972,224.311378 L703.92148,225.423873 L703.92148,227.086365 L702.258989,230.411348 L702.258989,233.186334 L703.92148,244.261279 L714.446428,258.09871 L719.421403,262.523687 L719.421403,264.186179 L720.533897,264.186179 L722.196389,268.623657 L727.183864,276.373618 L727.183864,284.111079 L722.196389,282.461088 L716.108919,276.373618 L691.746541,262.523687 L683.99658,270.286149 L711.683942,290.223549 L719.433903,299.636002 L722.208889,302.410988 L725.546372,304.07348 L727.208864,300.748496 L717.783911,291.886041 L705.596472,282.473588 L697.846511,274.711126 L697.846511,273.048635 L696.184019,271.94864 L703.93398,276.373618 L707.271464,279.698602 L713.358933,284.123579 L714.458928,285.798571 L722.208889,290.223549 L725.546372,292.998535 L727.208864,296.323518 L727.208864,300.748496 L725.546372,304.07348 L727.208864,305.735971 L727.208864,310.160949 L725.546372,310.160949 L720.558897,308.498458 L693.421533,288.561057 L685.671572,290.223549 L690.09655,294.648527 L705.596472,304.06098 L707.271464,306.835966 L703.93398,305.723471 L664.07168,299.636002 L654.646727,296.311018 L645.784271,294.648527 L644.121779,292.986035 L618.09691,292.986035 L611.446943,290.211049 L611.446943,285.786071 L616.434418,280.811096 L631.93434,276.386118 L639.134304,274.711126 L640.796796,271.94864 L636.371818,270.286149 L631.94684,270.286149 L626.971865,271.94864 L626.971865,273.048635 L624.196879,274.711126 L614.784426,276.386118 L614.784426,274.711126 L616.446918,274.711126 L619.221904,271.94864 L626.971865,271.94864 L631.94684,270.286149 L644.134279,264.186179 L644.134279,262.523687 L639.159304,262.523687 L631.95934,265.861171 L616.459418,266.961165 L611.471943,264.186179 L608.709456,270.286149 L607.021965,270.286149 L608.684457,273.048635 L608.684457,279.698602 L607.021965,282.461088 L605.359473,290.211049 L599.259504,292.986035 L569.90965,296.311018 L568.797156,290.223549 L568.797156,266.961165 L569.90965,265.861171 L569.90965,258.08621 L571.572142,254.761226 L569.90965,253.098735 L569.90965,248.673757 L568.797156,247.011265 L567.134664,244.236279 L568.797156,240.911295 L557.722211,234.823826 L551.622242,230.398848 L550.522247,228.736356 L550.522247,227.073865 L548.859756,224.298879 L548.859756,213.223934 L550.522247,208.786456 L550.522247,205.461473 L551.622242,204.348978 L554.959725,197.711511 L554.959725,196.599017 L556.05972,193.274034 L556.05972,191.611542 L557.734711,190.499048 L559.397203,187.174064 L559.397203,182.749086 L561.059695,181.086595 L561.059695,176.661617 L563.834681,165.586672 L563.834681,161.161694 L565.497173,156.736716 L567.159664,153.411733 L567.159664,151.736741 L569.93465,147.311763 L569.93465,143.98678 L571.597142,142.874286 L571.597142,139.549302 L573.259634,137.886811 L573.259634,136.224319 L574.922125,133.449333 L576.584617,131.786841 L576.584617,129.011855 L577.697112,127.349363 L577.697112,124.01188 L579.359603,122.361888 L579.359603,119.586902 L581.022095,117.91191 L587.109564,105.736971 L590.434548,96.3120184 L591.547042,95.2120239 L593.209534,91.8745406 L594.872026,90.2120489 L599.297004,81.3495933 L605.396973,74.7121264 L613.146934,64.1746791 L614.809426,61.4121929 L618.134409,56.4372178 L630.321848,44.2497788 L631.98434,45.9122704 L633.096835,48.6747566 L633.096835,52.0122399 L634.759326,53.6747316 L634.759326,59.7622012 L636.421818,64.1871791 L636.421818,65.8621707 L638.08431,70.2871486 L638.08431,84.1370793 L639.196804,87.4620627 L639.196804,96.3245184 L640.859296,99.6620017 L640.859296,121.261894 L642.521787,124.02438 L642.521787,125.699372 L644.184279,127.361863 L644.184279,135.111824 L645.846771,137.886811 L645.846771,157.824211 L646.959265,161.161694 L646.959265,179.436603 L645.846771,181.099095 L645.846771,197.711511 L646.959265,199.374003 L646.959265,207.123964 L648.621757,210.461448 L648.621757,213.236434 L650.284249,214.898926 L650.284249,227.086365 L645.859271,236.498818 L618.171909,250.336248 L613.196934,254.761226 L611.521942,258.08621 L613.196934,259.198704 L613.196934,262.523687 L616.521917,262.523687 L630.359348,259.198704 L636.446818,259.198704 L644.196779,258.08621 L639.221804,254.761226 L628.696857,254.761226 L628.696857,253.098735 L638.109309,248.673757 L651.95924,239.261304 L653.059235,236.486318 L656.384218,219.311403 L656.384218,214.886426 L654.721726,213.223934 L654.721726,194.936525 L653.059235,193.274034 L653.059235,163.91168 L651.95924,161.149194 L651.95924,147.299264 L653.059235,147.299264 L651.95924,145.636772 L651.95924,125.699372 L650.284249,122.374388 L650.284249,111.849441 L648.621757,109.074455 L648.621757,107.411963 L646.959265,102.436988 L646.959265,96.3370183 L645.846771,93.5745321 L645.846771,88.5870571 L644.184279,85.8120709 L644.184279,70.2996485 L642.521787,65.8746706 L642.521787,61.4746926 L640.859296,58.1497093 L640.859296,52.0622397 L638.02181,45.9747701 L638.02181,44.3122784 L636.359318,40.9747951 L636.359318,39.8873006 L634.696827,36.5498173 L626.946865,36.5498173 L616.421918,47.6372618 L614.771926,47.6372618 L614.771926,50.4122479 L610.346948,54.8372258 L605.371973,64.2496788 L596.509517,73.6746316 L591.522042,82.5370873 L585.434573,90.2870486 L583.772081,91.9495403 L583.772081,93.6245319 L582.659587,96.3870181 L580.997095,102.486988 L579.334603,104.149479 L579.334603,105.811971 L576.559617,110.236949 L576.559617,115.211924 L573.234634,117.97441 L573.234634,119.649402 L571.572142,122.424388 L569.90965,124.07438 L569.90965,127.411863 L568.797156,130.186849 L568.797156,133.511832 L565.472173,137.93681 L565.472173,139.599302 L563.809681,142.924285 L563.809681,144.03678 L562.697187,147.361763 L561.034695,149.036755 L561.034695,151.799241 L559.372203,156.786716 L556.03472,159.561702 L556.03472,162.886686 L554.934725,165.661672 L554.934725,167.324163 L553.272234,168.986655 L553.272234,176.736616 L551.597242,179.511602 L551.597242,183.93658 L550.497248,185.611572 L550.497248,191.699042 L548.834756,196.674017 L545.497273,202.761486 L545.497273,204.423978 L542.172289,210.523947 L542.172289,213.298934 L541.072295,218.261409 L541.072295,222.698887 L542.172289,225.473873 L543.834781,227.136364 L543.834781,230.461348 L547.172264,233.236334 L565.447173,245.423773 L562.672187,253.173734 L541.072295,242.648787 L528.322358,239.323803 C527.209864,238.211309 525.547372,239.323803 523.897381,240.986295 L529.98485,245.411273 C534.959825,245.411273 539.397303,247.073765 542.172289,250.386248 L537.747311,253.161234 L534.972325,258.136209 L545.497273,258.136209 L554.922225,259.248704 L562.672187,262.573687 L561.009695,265.91117 L548.822256,267.011165 L542.172289,268.686157 L542.172289,270.348648 L550.484748,270.348648 L554.909725,268.686157 L560.997195,270.348648 L560.997195,274.773626 L559.334703,278.09861 L543.822281,279.773601 L542.159789,282.548587 L543.822281,284.198579 L550.472248,282.548587 L555.99722,279.773601 L560.984695,280.886096 L560.984695,285.861071 L555.99722,288.636057 L557.672212,293.061035 L557.672212,296.386018 L553.247234,298.04851 L551.572242,294.723526 L557.672212,293.061035 L555.99722,288.636057 L547.147264,293.061035 C539.384803,294.723526 536.609817,296.386018 536.609817,298.03601 L527.197364,302.460988 L525.534872,304.123479 L522.759886,302.460988 L523.872381,298.03601 L523.872381,293.061035 L522.759886,290.286049 L505.597472,285.861071 L505.597472,280.886096 L499.510002,268.698657 L487.322563,253.186234 L479.560102,248.761256 L475.135124,239.348803 L467.372663,231.598842 L467.372663,228.823856 L465.710171,227.161364 L464.04768,222.736386 L455.185224,210.548947 L445.772771,202.786486 L425.835371,190.599047 L425.835371,187.274064 L424.160379,183.93658 L422.497888,182.836586 L422.497888,167.336663 L420.835396,165.674172 L420.835396,163.99918 L419.735401,161.236694 L419.735401,159.574202 L418.147909,155.086725 L416.485418,155.086725 L416.485418,151.749241 L413.722931,147.324263 L412.04794,143.99928 L412.04794,142.886786 L402.635487,122.399388 L402.635487,119.624402 L400.972995,117.94941 L399.860501,113.524432 L398.198009,111.861941 L393.773031,111.861941 L390.448048,113.524432 L390.448048,116.299419 L388.785556,117.94941 L387.110564,121.286894 L387.110564,125.711871 L386.01057,129.036855 L386.01057,135.124324 L384.348078,139.549302 L384.348078,151.736741 L381.023095,155.074225 L378.248109,150.08675 L372.160639,137.899311 L372.160639,136.236819 L370.485648,133.461833 L370.485648,131.799341 L368.835656,129.024355 L364.410678,124.03688 L361.073195,124.03688 L359.410703,127.374363 L359.410703,130.149349 L358.298209,133.474333 L358.298209,137.899311 L356.635717,141.224294 L356.635717,155.074225 L355.023225,159.511702 L355.023225,168.924155 L356.685717,170.586647 L355.023225,170.586647 L355.023225,179.449103 L356.685717,179.449103 L356.685717,188.861556 L358.348208,190.524047 L358.348208,193.299034 L359.460703,196.624017 L359.460703,227.098865 L350.598247,245.373773 L350.598247,253.123734 L348.935755,254.786226 L348.935755,264.198679 L352.260739,262.536187 L353.373233,259.211204 L355.023225,258.08621 L356.685717,254.761226 L358.348208,256.423718 L358.348208,258.08621 L355.023225,264.173679 L356.685717,266.948665 L358.348208,268.623657 L359.460703,268.623657 L359.460703,270.286149 L358.348208,270.286149 L356.685717,273.048635 L353.360733,274.711126 L352.248239,273.048635 L352.248239,262.523687 L348.923255,264.186179 L347.273264,264.186179 L348.935755,268.623657 L348.935755,276.373618 L350.598247,279.698602 L350.598247,288.561057 L352.260739,292.986035 L352.260739,305.723471 L350.598247,305.723471 L350.598247,314.585927 L348.935755,316.248419 L348.935755,325.660872 L350.598247,328.435858 L350.598247,333.410833 L352.260739,336.198319 L353.373233,343.93578 L355.035725,347.273264 L358.360708,356.135719 L361.135694,359.460703 L364.473178,365.548172 L358.373208,371.635642 L355.023225,376.04812 L350.598247,376.04812 L346.173269,379.385603 L344.510777,376.04812 L344.510777,371.623142 L341.185794,369.96065 L338.410808,374.935625 L335.085825,381.035595 L335.085825,382.135589 L325.673372,391.560542 L322.898386,400.972995 L319.573402,403.735481 L316.798416,408.722956 L313.460933,414.810426 L311.798441,415.92292 L311.798441,419.247904 L310.698447,420.910395 L309.035955,423.685382 L305.698472,428.660357 L305.698472,429.772851 L304.585977,431.99784 L299.611002,440.847796 L296.836016,443.622782 L293.511032,448.610257 L293.511032,449.710251 L290.736046,456.360218 L289.073555,457.460213 L287.411063,460.797696 L285.748571,462.460188 L284.636077,466.885166 L282.973585,470.210149 L282.973585,473.535132 L281.311093,476.310118 L281.311093,479.085105 L279.648602,482.410088 L279.648602,484.07258 L277.98611,487.397563 L277.98611,491.285044 L276.873616,494.610027 L276.873616,497.94751 L275.211124,504.03498 L275.211124,506.809966 L273.548632,510.134949 L273.548632,515.109924 L271.886141,516.222419 L265.798671,525.084875 L261.373693,528.959855 L224.261379,538.934805 L205.98647,550.00975 L205.98647,552.784736 L204.323978,556.122219 L202.648987,557.784711 L202.648987,571.622142 L204.323978,574.397128 L204.323978,579.372103 L201.548992,583.797081 L196.561517,597.634512 L196.561517,599.297004 L192.136539,605.384473 L182.774086,605.384473 L181.674092,603.721981 L176.686617,602.05949 L173.91163,602.05949 L168.936655,603.721981 L170.599147,607.046965 L172.261639,608.159459 L184.449078,611.484443 L192.199039,614.259429 L193.861531,617.596912 L193.861531,629.784351 L192.199039,631.446843 L175.024125,634.146829 L142.911785,646.884266 L142.911785,649.659252 L144.574277,652.984235 L190.536547,637.484313 L193.861531,640.809296 L192.199039,643.584282 L192.199039,646.909265 L190.536547,648.02176 L190.536547,649.684252 L188.874056,653.009235 L188.874056,655.784221 L187.761561,657.446713 L187.761561,660.771696 L180.0116,665.196674 L175.024125,669.584152 L187.761561,667.92166 L188.874056,669.584152 L190.536547,672.921635 L192.199039,677.346613 L192.199039,679.021605 L193.861531,681.784091 L193.861531,683.459083 L195.536522,688.434058 L195.536522,689.546552 L196.636517,692.871536 L196.636517,694.534027 L198.311508,695.646522 L199.974,698.971505 L198.311508,702.296489 L184.461578,705.071475 L176.711616,708.396458 L173.93663,711.171444 L173.93663,718.921405 L175.049125,720.583897 L173.93663,722.246389 L158.436708,744.958775 L150.686747,749.93375 L142.936785,757.133714 L138.511807,760.458698 L138.511807,764.883676 L136.849316,766.546167 L129.086855,772.633637 L126.311868,777.058615 L104.711976,800.320998 L90.8745456,811.395943 L83.1245844,815.820921 L75.3621232,818.595907 L78.6996065,825.233374 L63.1871841,840.183299 L59.8622007,845.170774 L59.8622007,846.270769 L61.5246924,851.258244 L59.8622007,852.358238 L53.7747311,860.120699 L50.999745,863.445683 L47.6747616,869.533152 L47.6747616,877.283114 L43.2497838,882.258089 L41.5872921,886.145569 L38.7873061,889.458053 L38.7873061,892.783036 L37.1248144,896.120519 L37.1248144,898.895506 L26.0373698,909.97045 L26.0373698,912.745436 L17.1874141,924.932875 L17.1874141,929.357853 L15.5249224,931.020345 L15.5249224,934.345328 L13.8499308,940.432798 L13.8499308,950.957745 L9.42495288,957.045215 L7.76246119,958.707706 L6.0999695,961.482693 L4.98747506,966.470168 L3.32498338,968.132659 L1.66249169,972.557637 L3.32498338,972.557637 L3.32498338,975.320123 L4.98747506,978.657607 L4.98747506,983.082585 L3.32498338,986.407568 L3.32498338,992.495038 L1.66249169,995.270024 L1.66249169,996.932515 L0,1000.2575 L0,1003.03248 L1.66249169,1004.69498 L4.98747506,1001.91999 L4.98747506,995.282524 L6.0999695,994.170029 L6.0999695,990.845046 L7.76246119,988.07006 L7.76246119,978.657607 L9.42495288,975.320123 L11.0874446,974.220129 L13.8624307,969.245154 L13.8624307,968.132659 L12.199939,964.807676 L13.8624307,963.132684 L19.9499003,954.282729 L26.0373698,947.632762 L23.2748836,941.545292 L24.9373753,941.545292 L49.2997535,931.020345 L58.7122064,931.020345 L69.2371538,938.770306 L72.5621372,941.545292 L72.5621372,944.832776 L73.6746316,946.495268 L81.4245929,952.582737 L87.5245624,952.582737 L92.4995375,946.495268 L92.4995375,943.170284 L87.5245624,944.832776 L86.4120679,946.495268 L81.4245929,941.520292 L81.4245929,940.407798 L78.6621067,935.432823 L75.3246234,932.657837 L72.5496373,926.570367 L70.8871456,924.907875 L59.8122009,921.582892 L44.8622757,924.907875 L38.7873061,929.332853 L27.6998615,934.307828 L24.9373753,932.645337 L24.9373753,927.670362 L26.0373698,924.895376 L27.6998615,924.895376 L27.6998615,921.582892 L29.3748531,917.157914 L33.799831,912.732936 L35.4623227,909.95795 L38.7873061,906.632967 L43.2122839,904.970475 L49.2997535,898.883006 L55.3872231,893.895531 C59.8122009,891.120544 61.4746926,889.470553 63.1371843,889.470553 L80.3120984,880.0581 L83.0870846,883.383083 L83.0870846,887.808061 L84.7495763,893.895531 L84.7495763,899.983 L83.0870846,907.745461 L84.7495763,909.95795 L84.7495763,915.495423 L86.4120679,915.495423 L86.4120679,934.320328 L87.5245624,940.407798 L87.5245624,944.832776 L92.4995375,943.170284 L93.6120319,941.507792 L95.2745236,938.732806 L95.2745236,924.895376 L93.6120319,921.570392 L93.6120319,913.807931 L92.4995375,913.807931 L92.4995375,883.345583 L90.8370458,882.233089 L90.8370458,878.908105 L87.5245624,873.94563 L81.4245929,872.833136 L75.3371233,875.608122 L73.6746316,877.270614 L50.9747451,889.458053 L53.7497313,880.0456 L53.7497313,877.270614 L55.4122229,873.94563 L67.599662,865.083175 L67.599662,861.758191 L63.1496843,861.758191 L59.8247009,863.420683 L61.4871926,860.0957 L69.2371538,852.333238 L83.0870846,841.808291 L84.7495763,835.720821 L78.6621067,835.720821 L78.6621067,834.05833 L92.4995375,821.870891 L93.6120319,817.445913 L103.024485,808.03346 L122.961885,794.196029 L134.04933,783.658582 L141.799291,777.021115 L153.98673,769.821151 L192.199039,754.321228 L212.148939,749.896251 L213.811431,754.321228 L216.586417,755.98372 L238.186309,762.07119 C245.93627,758.746206 250.373748,758.746206 253.698732,762.07119 L265.886171,768.158659 L275.298624,770.933645 L283.048585,777.021115 L290.798546,781.99609 L302.985985,792.521037 L310.748446,797.508512 L318.498408,800.283499 L332.335838,809.695952 L336.760816,808.03346 L333.435833,803.608482 L324.573377,797.521012 L310.735946,790.871046 L276.948615,764.846176 L249.261254,755.98372 L239.836301,755.98372 C237.061315,752.658737 233.748831,751.008745 230.423848,751.008745 L221.561392,748.233759 L206.06147,746.571267 L178.361608,750.996245 C170.611647,754.321228 164.524177,757.083715 161.199194,758.746206 L153.99923,763.721181 L146.249269,764.833676 L146.249269,762.05869 L160.0867,749.871251 L161.199194,749.871251 L167.836661,744.896276 L168.949155,742.121289 L168.949155,740.446298 L173.92413,736.02132 L178.349108,728.271359 L186.09907,722.171389 L187.761561,718.846406 L190.536547,714.421428 L192.199039,711.096445 L206.04897,706.671467 L207.711461,705.008975 L204.386478,700.583997 L204.386478,697.259014 L206.04897,694.484028 L204.386478,686.734066 L202.711486,685.071575 L196.624017,672.884136 L196.624017,665.121674 L195.524022,660.696697 L195.524022,652.946735 L196.624017,649.621752 L196.624017,647.95926 L198.299009,645.184274 L198.299009,641.859291 L199.9615,640.746796 L199.9615,632.996835 L201.623992,626.909365 L201.623992,617.496913 L199.9615,614.159429 L199.9615,611.384443 L201.623992,608.05946 L201.623992,603.634482 L202.723986,600.309498 L202.723986,599.197004 L204.398978,595.872021 L206.06147,594.209529 L206.06147,591.434543 L207.723961,588.109559 L213.811431,582.02209 L210.486448,572.609637 L209.373953,562.08469 L215.461423,551.547242 L221.548892,549.884751 L230.411348,554.309728 C235.386323,554.309728 239.823801,557.647212 244.248779,562.07219 L244.248779,563.734681 L249.236254,572.597137 L249.236254,579.234604 L250.336248,582.00959 L255.323723,579.234604 L255.323723,568.147159 L251.98624,562.07219 L238.148809,549.872251 L229.286354,545.447273 L233.711331,542.109789 L238.136309,540.447298 L241.461293,540.447298 L241.461293,543.772281 L247.548762,543.772281 L255.311223,542.109789 L256.973715,543.772281 L256.973715,546.547267 L275.248624,546.547267 L276.911115,551.522242 L273.586132,554.297229 L284.661077,559.284704 L284.661077,560.384698 L282.998585,562.05969 L282.998585,563.722181 C284.661077,565.384673 285.773571,566.484668 290.748546,566.484668 L291.861041,563.722181 L287.436063,559.297204 L287.436063,555.97222 L289.098555,555.97222 L287.436063,554.297229 L281.348593,545.447273 L278.02361,542.109789 L271.93614,540.447298 L267.523662,536.109819 L267.523662,531.684842 L278.04861,522.272389 L281.373593,523.93488 L284.698577,523.93488 L285.811071,522.272389 L285.811071,515.072425 L287.473563,515.072425 L287.473563,506.772466 L289.136054,503.99748 L289.136054,502.334988 L290.798546,498.997505 L290.798546,492.910035 L285.823571,497.897511 L285.823571,501.222494 L284.686077,502.334988 L283.023585,510.08495 L283.023585,512.847436 L281.361093,511.184944 L283.023585,508.422458 L283.023585,502.334988 L284.686077,494.572527 L284.686077,490.147549 L285.798571,485.172574 L285.798571,484.06008 L287.461063,480.735096 L287.461063,477.410113 L289.123554,476.297619 L289.123554,473.522632 L291.898541,466.885166 L293.561032,465.222674 L302.973485,446.935265 L304.635977,445.822771 L307.410963,439.185304 L309.085955,434.760326 L311.848441,429.772851 L311.848441,426.997865 L313.510932,426.997865 L316.848416,419.247904 L321.273394,411.497943 L322.898386,409.835451 L325.673372,403.735481 L328.998355,399.310503 L332.323338,395.98552 L332.323338,400.960495 L333.435833,403.722981 L336.760816,399.298004 L339.535802,391.548042 L341.198294,389.885551 L341.198294,387.110564 L346.173269,387.110564 L347.285764,389.885551 L352.260739,387.110564 L361.123194,377.685612 L361.123194,376.02312 L367.210664,369.93565 L379.9606,371.598142 L382.735586,369.93565 L373.310633,367.160664 L370.535647,361.073195 L367.210664,357.748211 L361.123194,345.560772 L359.460703,343.885781 L359.460703,340.573297 L358.348208,339.460803 L358.348208,336.135819 L356.685717,333.348333 L356.685717,285.723571 L355.023225,285.723571 L355.023225,280.748596 L356.685717,279.636102 L361.110694,277.96111 L364.448178,274.636127 L364.448178,265.786171 L366.110669,265.786171 L364.448178,260.798696 L364.448178,254.711226 L361.110694,251.93624 L356.685717,250.273749 L356.685717,245.298774 L364.448178,231.461343 L367.210664,228.686357 L367.210664,227.023865 L368.885656,225.361373 L367.210664,222.586387 L367.210664,220.923895 L366.110669,219.248904 L366.110669,193.224034 L364.448178,191.561542 L364.448178,187.136564 L362.773186,185.474073 L362.773186,182.699087 L361.110694,177.711611 L361.110694,155.086725 L362.773186,153.424233 L362.773186,145.661772 L364.448178,142.886786 L364.448178,137.91181 L367.210664,141.236794 L367.210664,142.899286 L368.885656,144.01178 L368.885656,145.674272 L370.535647,147.336763 L370.535647,149.011755 L372.210639,150.111749 L372.210639,151.774241 L373.310633,153.449233 L376.648117,162.861686 L378.310608,165.636672 L379.9731,167.299164 L379.9731,188.899056 L378.310608,188.899056 L378.310608,216.598917 L379.9731,216.598917 L382.748086,213.273934 L384.410578,213.273934 L384.410578,187.236564 L386.07307,182.811586 L386.07307,173.399133 L387.173064,162.874186 L387.173064,156.786716 L388.848056,155.124224 L388.848056,151.786741 L390.510547,151.786741 L390.510547,133.511832 L392.173039,133.511832 L392.173039,130.186849 L393.835531,129.074355 L393.835531,125.749371 L394.948025,125.749371 L398.273009,129.074355 L399.9355,131.849341 L399.9355,133.511832 L401.047995,135.174324 L402.710486,137.94931 L402.710486,139.611802 L404.372978,141.274294 L404.372978,142.936785 L406.03547,147.361763 L406.03547,149.036755 L407.147964,149.036755 L407.147964,151.799241 L408.810456,155.136724 L408.810456,156.799216 L410.472948,156.799216 L410.472948,159.574202 L413.810431,162.899186 L413.810431,165.674172 L414.910425,165.674172 L414.910425,176.749116 L416.572917,182.836586 L416.572917,185.611572 L418.235409,190.586547 L418.235409,191.699042 L421.010395,193.361533 L424.335378,197.786511 L445.94777,210.536447 L455.360223,219.386403 L455.360223,222.723886 L456.472718,225.498873 L458.135209,225.498873 L458.135209,228.823856 L459.797701,230.486348 L459.797701,231.598842 L464.222679,236.573817 L465.885171,239.348803 L467.547662,241.011295 L468.660157,244.336278 L470.322648,245.448773 L470.322648,247.111264 L473.647632,252.08624 L478.07261,256.511217 L482.497588,259.286204 L485.835071,260.948695 L487.497563,264.273679 L490.260049,267.048665 L493.597532,274.798626 L495.260024,274.798626 L495.260024,278.123609 L496.372518,279.798601 L498.03501,284.223579 L498.03501,285.898571 L500.797496,288.673557 L500.797496,290.336048 L511.884941,294.761026 L513.547432,299.736001 L511.884941,300.848496 L510.222449,304.173479 L458.160209,324.110879 C453.735231,325.773371 448.747756,327.448363 447.635262,328.535857 L412.185439,344.03578 L396.685517,354.573227 L393.91053,357.898211 L392.248039,357.898211 L390.585547,361.223194 L387.248064,363.99818 L386.148069,367.323163 L382.823086,370.09815 L380.0481,371.760641 L380.0481,373.423133 L381.160594,376.198119 L387.235564,373.423133 L399.9855,361.235694 L419.9354,345.735771 L421.035395,347.398263 L428.785356,345.735771 L462.572687,328.560857 L555.059725,302.535987 L602.696987,299.761001 L676.359118,306.960965 L680.784096,306.960965 L686.871566,308.623457 L690.196549,311.94844 L688.534057,314.723426 L694.621527,319.698402 L686.871566,322.473388 L686.871566,325.798371 L702.371488,325.798371 L711.783941,327.473363 L720.646397,327.473363 L719.533902,320.823396 L719.533902,319.710901 L722.308888,318.04841 L722.308888,320.823396 L719.533902,320.823396 L720.646397,327.473363 L723.98388,330.235849 L728.408858,331.91084 L730.07135,328.573357 L730.07135,320.823396 L731.733841,318.04841 L731.733841,311.96094 L733.396333,308.635957 L733.396333,293.136034 L734.508827,288.711056 L734.508827,278.173609 L731.733841,272.09864 L730.07135,270.436148 L727.296364,264.336178 L725.633872,258.248709 L722.296389,253.273734 L716.208919,248.848756 L711.783941,241.098795 L711.783941,238.323808 L710.02145,234.823826 L711.683942,233.161334 L711.683942,231.498843 L713.358933,228.723856 L714.458928,227.061365 L714.458928,224.286379 L722.208889,213.211434 L722.208889,210.461448 L723.883881,207.123964 L725.546372,205.461473 L728.321358,201.036495 L729.98385,196.611517 L729.98385,191.636542 L733.308833,185.549072 L734.421328,181.124094 L736.08382,179.461603 L741.058795,170.599147 L741.058795,163.94918 L743.833781,157.861711 L743.833781,156.761716 L745.496273,153.436733 L745.496273,150.08675 L747.158764,148.986755 L748.271259,145.649272 L748.271259,142.874286 L749.93375,139.549302 L749.93375,137.886811 L753.258734,131.799341 L756.03372,129.024355 L756.03372,125.699372 L761.008695,119.611902 L762.121189,116.286919 L762.121189,113.511932 L765.446173,110.186949 L769.871151,99.6620017 L774.858626,95.2370238 L775.95862,91.8995405 L775.95862,90.2370488 L777.621112,88.5745571 L779.296104,85.799571 L780.958595,81.3745931 L783.733581,74.7371263 L785.396073,73.6246319 L797.583512,54.7872261 L802.520987,45.9747701 L806.945965,40.9872951 L809.720951,34.8998255 L813.045935,30.4748476 L814.708426,27.1498643 L816.370918,26.0373698 L820.795896,16.6249169 L823.570882,13.2999335 L828.558357,6.0999695 L832.983335,4.43747781 L837.408313,6.0999695 Z" id="Path"></path>
            <polygon id="Path" points="393.785531 262.511187 392.123039 256.423718 386.03557 254.761226 384.373078 256.423718 382.723086 259.198704 384.373078 264.173679 386.03557 266.948665 387.135564 266.948665 392.123039 265.848671 393.785531 265.848671"></polygon>
        </g>
    </g>
</svg>
