<?xml version="1.0" encoding="UTF-8"?>
<svg width="751px" height="453px" viewBox="0 0 751 453" version="1.1" xmlns="http://www.w3.org/2000/svg" xmlns:xlink="http://www.w3.org/1999/xlink">
    <title>351799</title>
    <defs>
        <polygon id="path-1" points="0 0 55 0 55 66.898438 0 66.898438"></polygon>
        <polygon id="path-3" points="0 0 55 0 55 66.898438 0 66.898438"></polygon>
        <polygon id="path-5" points="0 0 52.601563 0 52.601563 64 0 64"></polygon>
    </defs>
    <g id="Page-1" stroke="none" stroke-width="1" fill="none" fill-rule="evenodd">
        <g id="351799" transform="translate(0.011719, 0.541972)">
            <polygon id="Path" fill="#8B8B8B" points="17.0507812 387.559591 48.2812502 387.559591 48.2812502 399.528341 31.2304692 399.528341 31.2304692 450.723653 17.0507812 450.723653 17.0507812 399.528341 1.77635684e-14 399.528341 1.77635684e-14 387.559591"></polygon>
            <g id="Clipped" transform="translate(52.988281, 385.458028)">
                <mask id="mask-2" fill="white">
                    <use xlink:href="#path-1"></use>
                </mask>
                <g id="Path"></g>
                <path d="M16.253906,23.75 C18.230469,9.160156 36.996094,8.167969 38.773438,23.75 C39.597656,31.023438 39.90625,38.179688 38.773438,44.867188 C35.746094,59.660156 18.777344,57.253906 16.480469,44.867188 C15.519531,37.894531 15.179688,30.582031 16.253906,23.75 Z M0.519531,31.804688 C-0.046875,47.652344 5.667969,66.863281 27.640625,66.316406 C49.960938,66.316406 54.699219,48.707031 54.613281,31.804688 C54.269531,12.6875 45.546875,0.921875 27.640625,0.937484457 C7.554688,1.410156 1.21875,17.222656 0.519531,31.804688 Z" id="Shape" fill="#8B8B8B" mask="url(#mask-2)"></path>
            </g>
            <polygon id="Path" fill="#8B8B8B" points="123.648437 387.567403 162.664062 387.567403 162.664062 399.333028 137.851562 399.333028 137.851562 412.540059 161.296875 412.540059 161.296875 423.973653 137.851562 423.973653 137.851562 438.965841 163.859375 438.965841 163.859375 450.731466 123.648437 450.731466"></polygon>
            <polygon id="Path" fill="#8B8B8B" points="366.910156 450.731466 381.183594 450.731466 381.183594 387.579122 366.910156 387.579122"></polygon>
            <path d="M230.601562,450.731466 L245.480469,450.731466 L250.117187,434.543966 L268.191406,434.571309 L273.167969,450.731466 L288.5,450.731466 L268.882812,387.579122 L250.132812,387.579122 L230.601562,450.731466 Z M252.171875,423.817403 L266.046875,423.868184 L258.933594,398.055684 L252.171875,423.817403 Z" id="Shape" fill="#8B8B8B"></path>
            <path d="M296.351562,387.536153 L312.992187,387.567403 C321.671875,402.657247 330.210937,417.215841 336.351562,432.493184 C335.796875,417.372091 335.4375,402.356466 335.480469,387.567403 L348.675781,387.586934 L348.417969,450.684591 L333.492187,450.731466 C324.707031,435.250997 316.175781,419.731466 308.667969,404.051778 L309.386719,450.731466 L296.375,450.731466 L296.351562,387.536153 Z" id="Path" fill="#8B8B8B"></path>
            <polygon id="Path" fill="#8B8B8B" points="176.660156 450.731466 190.933594 450.731466 190.933594 387.579122 176.660156 387.579122"></polygon>
            <polygon id="Path" fill="#8B8B8B" points="401.492187 387.551778 425.496094 387.551778 436.453125 430.325216 449.222656 387.551778 471.332031 387.551778 471.332031 450.731466 458.109375 450.731466 458.109375 400.622091 457.339844 400.622091 442.429687 449.739278 429.714844 449.739278 415.894531 400.598653 414.714844 400.598653 414.714844 450.731466 401.492187 450.731466"></polygon>
            <path d="M482.492187,450.731466 L497.371094,450.731466 L502.007812,434.543966 L520.078125,434.571309 L525.054687,450.731466 L540.386719,450.731466 L520.769531,387.579122 L502.019531,387.579122 L482.492187,450.731466 Z M504.0625,423.817403 L517.9375,423.868184 L510.828125,398.055684 L504.0625,423.817403 Z" id="Shape" fill="#8B8B8B"></path>
            <polygon id="Path" fill="#8B8B8B" points="557.4375 387.567403 588.667969 387.567403 588.667969 399.536153 571.617187 399.536153 571.617187 450.731466 557.4375 450.731466 557.4375 399.536153 540.386719 399.536153 540.386719 387.567403"></polygon>
            <polygon id="Path" fill="#8B8B8B" points="600.222656 450.731466 614.5 450.731466 614.5 387.579122 600.222656 387.579122"></polygon>
            <g id="Clipped" transform="translate(628.988281, 385.458028)">
                <mask id="mask-4" fill="white">
                    <use xlink:href="#path-3"></use>
                </mask>
                <g id="Path"></g>
                <path d="M16.144531,23.738281 C18.121094,9.148438 36.886719,8.15625 38.664063,23.738281 C39.488281,31.011719 39.796875,38.171875 38.664063,44.855469 C35.636719,59.648438 18.671875,57.242188 16.371094,44.855469 C15.410156,37.882813 15.070313,30.570313 16.144531,23.738281 Z M0.410156,31.792969 C-0.160156,47.640625 5.554688,66.851563 27.53125,66.304688 C49.847656,66.304688 54.589844,48.695313 54.503906,31.792969 C54.160156,12.675781 45.4375,0.910156 27.53125,0.925765457 C7.445313,1.402344 1.109375,17.210938 0.410156,31.792969 Z" id="Shape" fill="#8B8B8B" mask="url(#mask-4)"></path>
            </g>
            <g id="Clipped" transform="translate(697.988281, 387.458028)">
                <mask id="mask-6" fill="white">
                    <use xlink:href="#path-5"></use>
                </mask>
                <g id="Path"></g>
                <path d="M0.347656,0.078125 L16.988281,0.109375 C25.671875,15.199219 34.210938,29.757813 40.351563,45.035156 C39.796875,29.914063 39.433594,14.898438 39.480469,0.109375 L52.675781,0.128906 L52.421875,63.226563 L37.492188,63.273438 C28.703125,47.792969 20.175781,32.273438 12.664063,16.59375 L13.382813,63.273438 L0.378906,63.273438 L0.347656,0.078125 Z" id="Path" fill="#8B8B8B" mask="url(#mask-6)"></path>
            </g>
            <path d="M285.828125,6.92287245 C356.617187,4.83302845 386.734375,39.4853725 434,49.3252165 C471,58.8095915 511.46875,49.5439665 547.460937,52.1924035 C597.410156,53.4189665 643.867187,146.704122 579.785156,249.907247 C524.578125,327.747091 438.621094,345.344747 364.578125,340.040059 C328.09375,336.079122 294.082031,324.700216 262.425781,306.258809 C240.976562,328.102559 216.578125,338.676778 195.464844,339.540059 C144.574219,340.215841 135.558594,308.489278 146.5,294.547872 C154.191406,285.141622 165.625,283.817403 175.277344,292.094747 L169.625,265.387716 C168.527344,261.997091 170.925781,260.215841 173.230469,260.989278 L183.667969,265.454122 L173.746094,256.301778 C171.453125,254.141622 171.628906,252.985372 172.605469,251.200216 L183.296875,233.317403 L184.117187,232.571309 C157.003906,194.083028 143.046875,119.610372 184.804687,67.5713095 C205.136719,39.1377165 238.101562,9.39943445 285.828125,6.92287245 Z" id="Path" fill="#8B8B8B"></path>
            <path d="M397.007812,102.270528 C294.132812,97.2470915 259.324219,159.360372 253.285156,186.778341 C240.472656,232.797872 256.300781,264.860372 284.890625,291.762716 C309.605469,315.379903 345.078125,328.653341 381.925781,331.809591 C422.316406,334.278341 456,324.692403 484.933594,301.383809 C514.554687,275.645528 527.644531,235.727559 516.453125,193.364278 C498.910156,131.344747 440.0625,105.633809 397.007812,102.270528 Z" id="Path" fill="#414246"></path>
            <path d="M354.636719,139.368184 C367.144531,139.368184 377.285156,149.450216 377.285156,161.887716 C377.285156,174.329122 367.144531,184.411153 354.636719,184.411153 C342.128906,184.411153 331.992187,174.329122 331.992187,161.887716 C331.992187,149.450216 342.128906,139.368184 354.636719,139.368184 Z" id="Path" fill="#8B8B8B"></path>
            <path d="M367.679687,198.930684 C342.328125,187.637716 320.957031,185.629903 302.503906,189.454122 L270.707031,179.075216 C267.898437,178.551778 267.035156,182.211934 269.148437,183.172872 L295.292969,191.793966 C289.957031,194.512716 285.816406,197.680684 282.578125,201.372091 L261.3125,200.665059 C259.589844,201.008809 259.246094,204.754903 261.3125,204.915059 L279.609375,205.567403 C265.871094,228.891622 269.921875,261.223653 281.328125,278.848653 C306.4375,314.868184 345.597656,329.110372 386.691406,331.250997 C428.765625,331.614278 463.355469,321.168966 485.625,289.352559 C496.230469,272.715841 499.835937,255.262716 498.746094,237.219747 L506.617187,239.430684 C508.539062,239.965841 509.828125,236.032247 507.617187,235.231466 L497.589844,232.418966 C495.535156,226.118184 492.476562,220.700216 488.140625,216.407247 L504.910156,215.075216 C507.007812,214.563497 506.425781,211.028341 504.707031,210.926778 L483.617187,212.610372 C464.035156,199.403341 439.074219,199.188497 413.992187,204.918966 C407.859375,183.625997 378.410156,183.055684 367.679687,198.930684 Z" id="Path" fill="#8B8B8B"></path>
            <path d="M390.753906,217.625997 C367.675781,201.336934 340.410156,189.692403 311.425781,192.391622 L345.816406,203.778341 C347.386719,204.340841 347.058594,207.614278 345.386719,207.797872 L284.785156,205.762716 C269.222656,226.692403 275.1875,264.715841 286.644531,279.208028 C302.910156,302.247091 334.339844,323.895528 385.480469,326.817403 C424.59375,327.461934 456.324219,317.520528 476.367187,294.340841 C488.886719,277.649434 496.5625,260.196309 494.0625,235.926778 L437.660156,220.239278 C436.230469,219.731466 435.585937,216.840841 437.859375,216.067403 L475.992187,213.079122 C455.609375,202.540059 426.554687,202.493184 390.753906,217.625997 Z" id="Path" fill="#414246"></path>
            <path d="M187.410156,238.137716 L178.5625,252.614278 L201.433594,273.829122 C202.902344,275.520528 200.453125,279.043966 198.117187,278.102559 L176.273437,268.625997 L183.425781,302.391622 C184.289062,306.719747 179.453125,307.344747 177.554687,303.891622 C173.050781,296.395528 167.09375,291.797872 160.175781,292.450216 C153.242187,293.071309 148.96875,299.981466 148.648437,305.352559 C147.476562,324.086934 166.058594,333.219747 191.632812,333.653341 C215.304687,333.504903 236.996094,322.711934 255.980469,304.696309 L250.953125,298.665059 C224.003906,280.961934 203.09375,260.668966 187.410156,238.137716 Z" id="Path" fill="#414246"></path>
            <path d="M246.292969,77.4541225 C263.144531,90.6455285 278.664062,105.254903 293.4375,120.661153 L293.796875,121.719747 C302.019531,116.149434 311.050781,111.696309 321.421875,109.079122 C296.59375,93.2080285 270.246094,80.7236535 246.292969,77.4541225 Z" id="Path" fill="#414246"></path>
            <path d="M244.734375,82.0322475 C260.394531,93.8134975 275.523437,108.250997 290.378906,124.059591 C272.621094,137.266622 258.742187,156.231466 248.753906,180.965841 C240.394531,171.879903 236.773437,155.875997 238.335937,132.309591 C241.804687,110.465841 245.050781,111.625997 246.527344,98.9306845 C247.160156,93.2431845 247.050781,87.5869345 244.734375,82.0322475 Z" id="Path" fill="#414246"></path>
            <path d="M470.753906,122.047872 C479.3125,126.977559 487.058594,133.372091 494.277344,140.711934 L495.316406,139.645528 C514.808594,130.997091 534.199219,120.895528 553.421875,108.625997 C526.367187,105.055684 498.308594,117.575216 470.753906,122.047872 Z" id="Path" fill="#414246"></path>
            <path d="M497.148437,143.766622 C517.347656,134.504903 537.066406,123.524434 556.59375,111.844747 C554.300781,170.360372 552.371094,170.844747 525.25,199.364278 C519.492187,178.868184 511.96875,159.934591 497.148437,143.766622 Z" id="Path" fill="#414246"></path>
            <path d="M309.230469,213.262716 C331.550781,231.293966 346.535156,220.668966 383.429687,225.731466 C418.75,230.086934 431.355469,250.125997 470.097656,236.989278 L425.910156,287.907247 C413.421875,302.235372 395.511719,308.458028 375.1875,305.961934 C359.148437,304.645528 335.367187,285.500997 328.691406,267.762716 L309.230469,213.262716 Z" id="Path" fill="#8B8B8B"></path>
            <path d="M347.511719,277.344747 C350.039062,269.903341 364.636719,263.473653 385.265625,264.575216 C401.765625,266.063497 414.066406,275.215841 414.972656,285.688497 C414.410156,295.696309 396.441406,301.977559 382.800781,301.071309 C359.253906,297.563497 346.585937,285.379903 347.511719,277.344747 Z" id="Path" fill="#414246"></path>
            <path d="M302.277344,193.997091 C296.328125,195.813497 291.875,198.383809 288.601562,201.540059 L329.722656,202.946309 L302.277344,193.997091 Z" id="Path" fill="#414246"></path>
            <path d="M481.84375,216.973653 L451.429687,219.360372 L492.5,230.950216 C489.960937,225.149434 486.527344,220.360372 481.84375,216.973653 Z" id="Path" fill="#414246"></path>
            <path d="M350.847656,180.200216 C344.125,174.028341 341.628906,163.137716 350.898437,156.610372 C359.210937,151.750997 369.414062,153.852559 372.96875,164.313497 C373.21875,150.208028 364.101562,143.852559 354.367187,143.906898 C342.828125,144.594747 336.867187,153.317403 336.171875,160.997091 C335.457031,170.891622 342.496094,177.813497 350.847656,180.200216 Z" id="Path" fill="#414246"></path>
            <path d="M438.464844,151.532247 C425.957031,151.532247 415.816406,161.618184 415.816406,174.055684 C415.816406,186.493184 425.957031,196.579122 438.464844,196.579122 C450.972656,196.579122 461.117187,186.493184 461.117187,174.055684 C461.117187,161.618184 450.972656,151.532247 438.464844,151.532247 Z" id="Path" fill="#8B8B8B"></path>
            <path d="M420.316406,174.407247 C425.59375,163.731466 438.539062,164.172872 443.191406,172.598653 C446.9375,179.442403 444.1875,190.215841 434.101562,191.715841 C449.128906,196.657247 463.242187,177.954122 453.597656,163.422872 C440.582031,146.887716 418.472656,159.387716 420.316406,174.407247 Z" id="Path" fill="#414246"></path>
            <path d="M348.773437,122.833028 C347.574219,124.504903 350.117187,126.915059 351.992187,125.700216 C359.667969,117.954122 370.910156,117.231466 377.179687,126.579122 C378.601562,129.036153 382.355469,127.434591 381.175781,124.918966 C373.546875,111.817403 358.535156,112.930684 348.773437,122.833028 Z" id="Path" fill="#8B8B8B"></path>
            <path d="M426.621094,133.165059 C425.382812,135.192403 428.007812,137.481466 429.710937,136.106466 C436.429687,128.668966 448.492187,129.086934 454.34375,140.114278 C455.75,143.012716 459.59375,141.782247 458.566406,138.895528 C452.304687,123.907247 434.339844,123.633809 426.621094,133.165059 Z" id="Path" fill="#8B8B8B"></path>
            <path d="M372.480469,14.1142785 L377.921875,16.4228725 C412.402344,37.0322475 449.386719,48.5869345 484.773437,45.0986535 C479.5,21.4970915 467.542969,4.45802845 437.367187,0.563497452 C418.882812,-1.61619035 391.367187,2.45021645 372.480469,14.1142785 Z" id="Path" fill="#8B8B8B"></path>
        </g>
    </g>
</svg>